<svg viewBox="0 0 496 176" xmlns="http://www.w3.org/2000/svg" xmlns:xlink="http://www.w3.org/1999/xlink"><rect x="10" y="10" width="28" height="28" rx="4" stroke="#0004" stroke-width="1" fill="#fff"></rect><g transform="translate(10, 10)"><g transform="translate(19.599999999999998, 19.599999999999998) scale(0.0125) translate(-129.5, 415)"><path d="M155-691L218-560L150-560L42-691L155-691Z" fill="#000" transform="translate(0, 0)"></path></g><g transform="translate(8.4, 8.4) scale(0.01) translate(-280.5, 270)"><path d="M163-329L163-329Q129-329 102-314Q75-299 41-265L41-265L41-353Q90-409 171-409L171-409Q202-409 236-399Q270-389 296-377Q321-366 349-356Q378-346 399-346L399-346Q432-346 464-365Q496-385 520-410L520-410L520-320Q490-292 460-279Q429-266 390-266L390-266Q360-266 327-276Q294-286 270-298Q247-309 218-319Q188-329 163-329Z" fill="#000" transform="translate(0, 0)"></path></g><g opacity="0.5"><g transform="translate(19.599999999999998, 8.4) scale(0.01) translate(NaN, NaN)"></g></g></g><rect x="42" y="10" width="28" height="28" rx="4" stroke="#0004" stroke-width="1" fill="#fff"></rect><g transform="translate(42, 10)"><g transform="translate(14, 19.599999999999998) scale(0.0125) translate(-231, 270)"><path d="M358-690L358 0L273 0L273-532Q251-496 203-466Q156-436 105-425L105-425L105-518Q163-544 209-590Q256-635 273-690L273-690L358-690Z" fill="#000" transform="translate(0, 0)"></path></g><g transform="translate(8.4, 8.4) scale(0.01) translate(-135, 270)"><path d="M113-171L93-468L93-680L177-680L177-468L157-171L113-171ZM93 0L93-91L177-91L177 0L93 0Z" fill="#000" transform="translate(0, 0)"></path></g><g opacity="0.5"><g transform="translate(19.599999999999998, 8.4) scale(0.01) translate(-314.5, 270)"><path d="M314-337L314-337Q240-337 194-298Q149-259 149-192L149-192Q149-147 168-116Q188-84 217-75L217-75Q193-98 193-132L193-132Q193-174 224-205Q255-236 299-236L299-236Q343-236 374-205Q405-174 405-132L405-132Q405-72 358-36Q312 0 239 0L239 0Q205 0 173-14Q142-28 118-52Q93-77 79-114Q64-151 64-194L64-194Q64-232 82-271Q99-311 129-344Q160-377 208-398Q257-419 313-419L313-419Q350-419 386-409Q422-399 454-378Q486-358 511-329Q535-300 550-259Q564-218 564-171L564-171Q564-131 553-95Q541-60 524-35Q508-11 485 10Q463 31 445 42Q428 53 410 62L410 62L364-7Q400-23 424-44Q448-65 460-88Q472-112 476-133Q480-155 480-181L480-181Q480-254 435-296Q389-337 314-337ZM299-173L299-173Q283-173 270-161Q257-150 257-131Q257-113 270-101Q282-89 299-89L299-89Q315-89 328-101Q341-113 341-131L341-131Q341-150 328-161Q315-173 299-173Z" fill="#000" transform="translate(0, 0)"></path></g></g></g><rect x="74" y="10" width="28" height="28" rx="4" stroke="#0004" stroke-width="1" fill="#fff"></rect><g transform="translate(74, 10)"><g transform="translate(14, 19.599999999999998) scale(0.0125) translate(-256.5, 270)"><path d="M145-80L483-80L483 0L29 0Q29-107 205-254L205-254Q216-263 242-285Q268-306 279-315Q289-324 310-343Q331-362 340-373Q350-384 363-402Q377-420 383-435Q389-449 393-468Q398-487 398-506L398-506Q398-556 360-586Q323-615 266-615L266-615Q204-615 167-582Q130-549 129-487L129-487L45-487Q45-579 108-637Q170-695 268-695L268-695Q361-695 422-643Q482-591 482-504L482-504Q482-479 477-455Q472-432 465-413Q458-395 443-373Q428-352 417-339Q406-325 385-305Q364-285 352-274Q340-264 315-243Q290-222 279-213L279-213Q269-204 244-184Q219-164 206-152Q192-140 174-120Q157-100 145-80L145-80Z" fill="#000" transform="translate(0, 0)"></path></g><g transform="translate(8.4, 8.4) scale(0.01) translate(-496, 270)"><path d="M635 5L635 5Q585 5 566-11Q547-27 544-57L544-57Q491 5 400 5L400 5Q352 5 314-25Q276-54 256-105Q235-155 235-216L235-216Q235-275 256-330Q278-386 311-425Q345-465 388-489Q431-513 474-513L474-513Q571-513 615-440L615-440L631-498L715-498L647-178Q639-139 634-107L634-107Q635-90 646-77Q657-64 667-64L667-64Q707-64 747-109Q786-154 809-217Q833-280 833-336L833-336Q833-424 790-492Q748-559 676-595Q603-630 512-630L512-630Q399-630 313-578Q227-525 182-433Q136-342 136-227L136-227Q136-54 238 39Q339 133 525 133L525 133Q583 133 634 122Q685 112 720 97Q754 83 783 62Q811 42 827 25Q843 8 855-9L855-9L940-9Q893 88 783 145Q673 202 526 202L526 202Q421 202 334 175Q248 148 184 96Q121 44 87-37Q52-118 52-220L52-220Q52-323 86-412Q120-501 180-564Q240-628 326-664Q413-700 517-700L517-700Q630-700 720-655Q811-609 864-525Q917-442 917-334L917-334Q917-274 894-213Q872-151 835-103Q797-55 744-25Q691 5 635 5ZM320-212L320-212Q320-148 347-106Q374-64 418-64L418-64Q454-64 486-87Q518-109 538-144Q559-180 571-221Q583-263 583-304L583-304Q583-343 573-372Q563-400 546-415Q530-430 514-437Q497-444 480-444L480-444Q442-444 410-420Q378-397 359-361Q340-325 330-286Q320-247 320-212Z" fill="#000" transform="translate(0, 0)"></path></g><g opacity="0.5"><g transform="translate(19.599999999999998, 8.4) scale(0.01) translate(-313, 270)"><path d="M168-250L168-250Q168-290 182-323Q196-357 218-377Q241-397 268-408Q294-419 322-419L322-419Q376-419 416-372L416-372Q457-419 496-419L496-419Q626-419 626-212L626-212Q626-169 618-133Q609-98 595-76Q581-53 565-38Q549-22 530-14Q511-7 496-3Q481 0 467 0L467 0L53 0L53-513Q53-534 39-549Q25-565 1-565L1-565L1-649Q33-649 58-639Q83-629 97-615Q112-600 121-581Q130-562 134-545Q137-529 137-513L137-513L137-83L443-83Q487-83 514-119Q541-156 541-210L541-210Q541-337 497-337L497-337Q451-337 442-283L442-283L398-283Q385-336 319-337L319-337Q286-337 269-321L269-321L278-321Q323-321 353-290Q383-259 383-216L383-216Q383-173 353-142Q323-112 278-112L278-112Q266-112 253-115Q241-117 225-126Q209-135 197-149Q185-163 176-189Q168-216 168-250ZM308-246Q296-258 278-258Q260-258 248-246Q236-233 236-216L236-216Q236-200 248-187Q259-174 278-174Q297-174 308-187Q320-200 320-216L320-216Q320-233 308-246ZM53 0L53 0Z" fill="#000" transform="translate(0, 0)"></path></g></g></g><rect x="106" y="10" width="28" height="28" rx="4" stroke="#0004" stroke-width="1" fill="#fff"></rect><g transform="translate(106, 10)"><g transform="translate(14, 19.599999999999998) scale(0.0125) translate(-265.5, 270)"><path d="M40-200L40-200L125-200Q125-143 163-109Q202-75 259-75L259-75Q321-75 363-112Q406-150 406-209L406-209Q406-266 368-299Q330-331 270-331L270-331Q239-331 207-323L207-323L207-402Q220-401 226-401L226-401Q287-401 330-434Q372-466 372-518L372-518Q372-563 340-589Q308-615 257-615L257-615Q150-615 133-502L133-502L49-502Q51-583 110-639Q170-695 255-695L255-695Q310-695 356-673Q401-651 429-609Q457-568 457-516L457-516Q457-469 429-430Q402-390 362-372L362-372Q490-339 490-210L490-210Q490-117 424-56Q358 5 259 5L259 5Q166 5 104-53Q41-111 40-200Z" fill="#000" transform="translate(0, 0)"></path></g><g transform="translate(8.4, 8.4) scale(0.01) translate(-265.5, 270)"><path d="M164-183L125 5L41 5L80-183L10-183L10-263L97-263L129-422L10-422L10-502L146-502L185-689L270-689L231-502L361-502L400-689L485-689L446-502L522-502L522-422L429-422L396-263L522-263L522-183L379-183L340 5L256 5L295-183L164-183ZM312-263L345-422L214-422L181-263L312-263Z" fill="#000" transform="translate(0, 0)"></path></g><g opacity="0.5"><g transform="translate(19.599999999999998, 8.4) scale(0.01) translate(-320, 270)"><path d="M242-337L242-337Q190-337 162-303Q134-269 132-212L132-212Q132-202 136-190L136-190Q166-209 194-209L194-209Q243-209 272-177Q301-145 301-105L301-105Q301-59 270-30Q239 0 196 0L196 0Q165 0 139-12Q114-24 98-44Q83-64 72-91Q61-118 57-147Q53-175 53-206L53-206Q53-255 66-293Q80-332 100-355Q120-378 146-393Q173-408 196-413Q220-419 242-419L242-419Q299-419 343-377L343-377Q385-419 442-419L442-419Q503-419 545-377Q587-335 587-275L587-275L587 0L503 0L503-278Q503-304 487-320Q471-336 444-336L444-336Q414-336 401-321Q388-306 387-290L387-290L387-205L303-205L303-289Q303-307 287-322Q271-337 242-337ZM196-146L196-146Q178-146 166-133Q154-121 154-105L154-105Q154-88 166-75Q178-62 196-62L196-62Q215-62 227-75Q239-87 239-105L239-105Q239-121 227-134Q215-146 196-146Z" fill="#000" transform="translate(0, 0)"></path></g></g></g><rect x="138" y="10" width="28" height="28" rx="4" stroke="#0004" stroke-width="1" fill="#fff"></rect><g transform="translate(138, 10)"><g transform="translate(14, 19.599999999999998) scale(0.0125) translate(-250, 270)"><path d="M395 0L310 0L310-165L12-165L12-245L310-690L395-690L395-245L488-245L488-165L395-165L395 0ZM118-245L310-245L310-524L118-245Z" fill="#000" transform="translate(0, 0)"></path></g><g transform="translate(8.4, 8.4) scale(0.01) translate(-262, 270)"><path d="M222-667L222-703L306-703L306-667Q376-656 423-612Q469-568 473-498L473-498L388-498Q384-529 361-552Q339-575 306-584L306-584L306-375Q336-368 360-360Q383-352 409-337Q434-322 450-303Q467-284 478-255Q488-227 488-192L488-192Q488-113 437-62Q386-10 306 2L306 2L306 50L222 50L222 2Q139-8 87-62Q36-115 36-201L36-201L120-201Q128-153 154-122Q181-90 222-80L222-80L222-312Q50-353 50-489L50-489Q50-564 98-610Q147-656 222-667L222-667ZM222-392L222-585Q183-577 159-554Q134-531 134-495L134-495Q134-418 222-392L222-392ZM306-295L306-80Q349-90 376-118Q404-146 404-187L404-187Q404-233 378-258Q351-283 306-295L306-295Z" fill="#000" transform="translate(0, 0)"></path></g><g opacity="0.5"><g transform="translate(19.599999999999998, 8.4) scale(0.01) translate(-375, 270)"><path d="M615-503L699-503Q699-434 650-385Q601-336 530-336L530-336L264-336Q240-336 219-331Q198-325 179-312Q159-300 147-274Q136-248 136-212L136-212Q136-164 176-124Q216-83 263-83L263-83L302-83Q287-94 274-124Q260-153 260-193L260-193Q260-247 293-280Q326-312 377-312L377-312Q421-312 452-282Q483-251 483-208L483-208Q483-165 453-135Q423-104 377-104L377-104Q390-83 423-83L423-83L607-83L607 0L263 0Q204 0 155-28Q107-56 79-104Q52-152 52-210L52-210Q52-252 68-290Q84-329 112-357Q140-386 180-403Q219-420 264-420L264-420L530-420Q567-420 591-444Q615-469 615-503L615-503ZM377-249L377-249Q360-249 348-237Q335-225 335-208Q335-190 348-178Q360-165 377-165L377-165Q394-165 407-178Q420-190 420-208L420-208Q420-225 407-237Q394-249 377-249Z" fill="#000" transform="translate(0, 0)"></path></g></g></g><rect x="170" y="10" width="28" height="28" rx="4" stroke="#0004" stroke-width="1" fill="#fff"></rect><g transform="translate(170, 10)"><g transform="translate(14, 19.599999999999998) scale(0.0125) translate(-267.5, 270)"><path d="M40-194L40-194L128-194Q139-135 171-105Q203-75 261-75L261-75Q327-75 369-118Q411-162 411-232L411-232Q411-302 370-342Q330-383 259-383L259-383Q190-383 143-321L143-321L55-331L119-680L463-680L463-600L196-600L161-431Q199-462 277-462L277-462Q375-462 435-401Q495-339 495-240L495-240Q495-172 467-116Q438-61 384-28Q330 5 261 5L261 5Q165 5 107-49Q48-102 40-194Z" fill="#000" transform="translate(0, 0)"></path></g><g transform="translate(8.4, 8.4) scale(0.01) translate(-424.5, 270)"><path d="M539-27Q500-78 500-158Q500-237 539-288Q578-339 647-339Q716-339 755-288Q794-237 794-158Q794-78 755-27Q716 23 647 23Q578 23 539-27ZM647-260L647-260Q616-260 600-230Q585-200 585-158L585-158Q585-117 602-87Q619-56 647-56L647-56Q676-56 693-86Q709-116 709-158L709-158Q709-200 694-230Q679-260 647-260ZM94-387Q56-438 56-518Q56-597 94-648Q133-699 203-699Q272-699 311-648Q349-597 349-518Q349-438 311-387Q272-336 203-336Q133-336 94-387ZM203-619L203-619Q172-619 156-589Q140-559 140-518L140-518Q140-477 157-446Q174-416 203-416L203-416Q232-416 248-446Q265-476 265-518L265-518Q265-560 250-590Q234-619 203-619ZM215 5L570-699L655-699L299 5L215 5Z" fill="#000" transform="translate(0, 0)"></path></g><g opacity="0.5"><g transform="translate(19.599999999999998, 8.4) scale(0.01) translate(-375, 270)"><path d="M317-566L317-566Q362-566 393-536Q423-505 423-462L423-462Q423-439 414-420L414-420L530-420Q567-420 591-444Q615-469 615-503L615-503L699-503Q699-434 650-385Q601-336 530-336L530-336L264-336Q240-336 219-331Q198-325 179-312Q159-300 147-274Q136-248 136-212L136-212Q136-164 176-124Q216-83 263-83L263-83L302-83Q287-94 274-124Q260-153 260-193L260-193Q260-247 293-280Q326-312 377-312L377-312Q421-312 452-282Q483-251 483-208L483-208Q483-165 453-135Q423-104 377-104L377-104Q390-83 423-83L423-83L607-83L607 0L263 0Q204 0 155-28Q107-56 79-104Q52-152 52-210L52-210Q52-254 68-292Q84-330 110-354Q135-379 164-395Q193-411 222-416L222-416Q211-436 211-462L211-462Q211-505 242-536Q273-566 317-566ZM317-503L317-503Q300-503 288-491Q275-479 275-462L275-462Q275-445 288-432Q300-420 317-420Q335-420 347-432Q360-445 360-462L360-462Q360-480 347-491Q334-503 317-503ZM377-249L377-249Q360-249 348-237Q335-225 335-208Q335-190 348-178Q360-165 377-165L377-165Q394-165 407-178Q420-190 420-208L420-208Q420-225 407-237Q394-249 377-249Z" fill="#000" transform="translate(0, 0)"></path></g></g></g><rect x="202" y="10" width="28" height="28" rx="4" stroke="#0004" stroke-width="1" fill="#fff"></rect><g transform="translate(202, 10)"><g transform="translate(14, 19.599999999999998) scale(0.0125) translate(-263, 270)"><path d="M478-517L478-517L393-517Q382-565 354-590Q326-615 278-615L278-615Q131-615 127-395L127-395Q154-428 190-443Q226-458 278-458L278-458Q369-458 429-393Q490-327 490-230L490-230Q490-165 464-112Q438-59 388-27Q338 5 275 5L275 5Q210 5 163-20Q116-45 89-90Q61-136 49-195Q36-254 36-329L36-329Q36-695 283-695L283-695Q363-695 420-644Q478-594 478-517ZM143-230L143-230Q143-163 179-119Q214-75 274-75L274-75Q336-75 371-117Q405-159 405-225L405-225Q405-293 370-335Q334-378 271-378L271-378Q212-378 178-337Q143-295 143-230Z" fill="#000" transform="translate(0, 0)"></path></g><g transform="translate(8.4, 8.4) scale(0.01) translate(-225.5, 301)"><path d="M225-580L112-323L25-323L191-699L259-699L425-323L340-323L225-580Z" fill="#000" transform="translate(0, 0)"></path></g><g opacity="0.5"><g transform="translate(19.599999999999998, 8.4) scale(0.01) translate(-315, 270)"><path d="M36-600L36-683Q67-683 92-674Q117-665 131-650Q146-636 156-617Q166-598 169-581Q173-564 173-548L173-548L173-385Q237-419 349-419L349-419Q393-419 437-405Q480-392 515-368Q551-343 573-305Q595-267 595-222L595-222Q595-160 552-109Q510-57 439-29Q369 0 289 0L289 0Q235 0 194-13Q152-26 126-56Q100-86 100-130L100-130Q100-173 131-203Q161-234 205-234L205-234Q250-234 280-203Q311-173 311-130L311-130Q311-105 300-84L300-84Q335-84 371-94Q408-105 439-123Q470-142 490-171Q510-201 510-236L510-236Q510-247 507-258Q504-269 492-283Q481-298 463-310Q444-321 411-329Q377-337 333-337L333-337Q288-337 246-330Q204-323 177-313Q150-304 129-293Q108-283 99-276Q90-269 89-268L89-268L89-548Q89-569 74-584Q59-600 36-600L36-600ZM235-160Q223-172 205-172Q188-172 175-160Q163-148 163-130L163-130Q163-112 176-100Q188-88 205-88Q222-88 235-100Q247-112 247-130L247-130Q247-149 235-160Z" fill="#000" transform="translate(0, 0)"></path></g></g></g><rect x="234" y="10" width="28" height="28" rx="4" stroke="#0004" stroke-width="1" fill="#fff"></rect><g transform="translate(234, 10)"><g transform="translate(14, 19.599999999999998) scale(0.0125) translate(-268, 270)"><path d="M490-680L490-600Q443-543 401-477Q359-412 321-334Q284-257 262-170Q240-83 240 0L240 0L155 0Q155-78 177-166Q198-254 233-333Q268-413 308-481Q349-549 390-600L390-600L45-600L45-680L490-680Z" fill="#000" transform="translate(0, 0)"></path></g><g transform="translate(8.4, 8.4) scale(0.01) translate(-330, 270)"><path d="M456-84L456-84Q372 5 259 5L259 5Q165 5 103-52Q41-110 41-192L41-192Q41-318 204-395L204-395Q202-398 187-417Q172-435 168-441Q164-447 153-463Q143-480 139-489Q135-499 131-514Q128-529 128-543L128-543Q128-608 178-651Q228-695 299-695L299-695Q366-695 412-652Q458-609 458-550L458-550Q458-454 328-385L328-385L451-231Q473-272 484-323L484-323L572-304Q551-221 511-160L511-160Q562-99 618-58L618-58L562 10Q515-21 456-84ZM284-440L284-440Q333-470 345-480L345-480Q374-505 374-541L374-541Q374-570 349-593Q325-615 294-615L294-615Q261-615 236-593Q212-572 212-545L212-545Q212-536 217-526Q221-515 231-503Q240-490 248-481Q255-472 268-458Q280-444 284-440ZM403-151L248-340Q187-304 156-272Q126-240 126-198L126-198Q126-179 134-157Q143-136 159-117Q175-98 202-86Q228-75 260-75L260-75Q303-75 340-97Q377-119 403-151L403-151Z" fill="#000" transform="translate(0, 0)"></path></g><g opacity="0.5"><g transform="translate(19.599999999999998, 8.4) scale(0.01) translate(-406.5, 270)"><path d="M735-493L735-137Q735-75 695-38Q655 0 598 0L598 0L514 0L514-278Q514-304 498-320Q482-336 455-336L455-336Q438-336 426-331Q414-325 408-317Q403-309 400-302Q398-296 398-290L398-290L398-205L314-205L314-289Q314-307 297-322Q281-337 253-337L253-337Q202-337 173-303Q144-269 143-212L143-212Q143-202 147-190L147-190Q178-209 206-209L206-209Q252-209 282-177Q313-146 313-105L313-105Q313-60 281-30Q250 0 207 0L207 0Q176 0 150-12Q125-24 109-44Q93-64 83-92Q72-119 67-147Q63-176 63-206L63-206Q63-257 78-298Q93-339 120-365Q146-391 180-405Q214-419 253-419L253-419Q309-419 353-377L353-377Q396-419 453-419L453-419Q515-419 557-376Q598-334 598-275L598-275L598-83Q620-83 636-98Q651-113 651-135L651-135L651-493Q651-549 688-589L688-589L750-530Q735-515 735-493L735-493ZM207-146L207-146Q189-146 177-134Q165-121 165-105L165-105Q165-87 176-75Q188-62 207-62L207-62Q224-62 236-74Q249-86 249-105L249-105Q249-121 237-134Q225-146 207-146Z" fill="#000" transform="translate(0, 0)"></path></g></g></g><rect x="266" y="10" width="28" height="28" rx="4" stroke="#0004" stroke-width="1" fill="#fff"></rect><g transform="translate(266, 10)"><g transform="translate(14, 19.599999999999998) scale(0.0125) translate(-265, 270)"><path d="M170-377L170-377Q67-415 67-518L67-518Q67-599 123-647Q179-695 264-695L264-695Q350-695 407-645Q464-596 464-515L464-515Q464-466 437-431Q411-396 362-377L362-377Q426-355 459-313Q492-271 492-203L492-203Q492-105 430-50Q368 5 265 5L265 5Q167 5 103-53Q39-111 39-206L39-206Q39-276 74-319Q108-362 170-377ZM151-520L151-520Q151-472 183-442Q215-413 266-413L266-413Q315-413 347-441Q379-470 379-516L379-516Q379-563 348-589Q316-615 265-615L265-615Q215-615 183-591Q151-567 151-520ZM162-296Q123-264 123-205Q123-147 164-111Q205-75 266-75L266-75Q330-75 369-109Q407-143 407-203L407-203Q407-264 368-296Q329-328 263-328L263-328Q201-328 162-296Z" fill="#000" transform="translate(0, 0)"></path></g><g transform="translate(8.4, 8.4) scale(0.01) translate(-185, 342.5)"><path d="M30-561L30-561L52-628Q124-602 160-582L160-582Q151-662 150-699L150-699L218-699Q217-654 208-583L208-583Q257-608 318-628L318-628L340-561Q279-541 223-535L223-535Q251-511 304-446L304-446L248-406Q221-443 183-507L183-507Q150-443 122-406L122-406L67-446Q120-511 145-535L145-535Q77-548 30-561Z" fill="#000" transform="translate(0, 0)"></path></g><g opacity="0.5"><g transform="translate(19.599999999999998, 8.4) scale(0.01) translate(-370, 270)"><path d="M211 0L211 0Q163 0 124-32Q84-64 63-116Q41-168 41-228L41-228Q41-279 64-322Q86-365 130-392Q174-419 232-419L232-419L530-419Q567-419 591-444Q615-469 615-503L615-503L699-503Q699-434 650-385Q601-336 530-336L530-336L232-336Q183-336 154-304Q126-273 126-231L126-231Q126-172 146-146L146-146Q157-212 240-212L240-212Q260-212 286-195Q312-178 332-158Q352-138 370-121Q388-104 393-104L393-104Q392-109 392-119L392-119Q392-160 422-188Q452-217 495-217L495-217Q538-217 569-187Q600-157 600-112L600-112Q600-92 594-73Q587-54 574-38Q560-21 535-10Q510 0 476 0L476 0Q440 0 406-12Q373-25 349-43Q325-60 306-78Q287-96 272-109Q258-121 249-121L249-121Q209-121 209-44L209-44Q209-25 211 0ZM495-154L495-154Q478-154 466-142Q453-130 453-112L453-112Q453-94 465-82Q477-70 495-70L495-70Q514-70 525-83Q537-95 537-112L537-112Q537-130 525-142Q512-154 495-154Z" fill="#000" transform="translate(0, 0)"></path></g></g></g><rect x="298" y="10" width="28" height="28" rx="4" stroke="#0004" stroke-width="1" fill="#fff"></rect><g transform="translate(298, 10)"><g transform="translate(14, 19.599999999999998) scale(0.0125) translate(-279.5, 270)"><path d="M65-173L65-173L149-173Q161-125 189-100Q217-75 265-75L265-75Q412-75 416-295L416-295Q389-263 353-247Q317-232 264-232L264-232Q176-232 115-298Q53-363 53-460L53-460Q53-525 79-578Q105-632 155-663Q204-695 268-695L268-695Q330-695 377-670Q424-646 452-601Q480-556 493-496Q507-436 507-361L507-361Q507-298 499-244Q491-191 473-144Q455-97 427-64Q399-32 357-13Q315 5 260 5L260 5Q180 5 122-45Q65-96 65-173ZM399-460L399-460Q399-528 365-571Q330-615 270-615L270-615Q208-615 173-574Q137-532 137-465L137-465Q137-398 174-355Q210-312 273-312L273-312Q333-312 366-353Q399-395 399-460Z" fill="#000" transform="translate(0, 0)"></path></g><g transform="translate(8.4, 8.4) scale(0.01) translate(-171.5, 270)"><path d="M285 202L225 202Q149 104 103-11Q58-126 58-249L58-249Q58-319 71-383Q83-448 107-503Q131-559 159-605Q187-651 225-699L225-699L285-699Q257-651 242-624Q227-597 208-558Q188-519 179-489Q169-460 160-421Q150-382 146-340Q143-298 143-248L143-248Q143-27 285 202L285 202Z" fill="#000" transform="translate(0, 0)"></path></g><g opacity="0.5"><g transform="translate(19.599999999999998, 8.4) scale(0.01) translate(-379.5, 270)"><path d="M284-419L284-419Q327-419 360-410Q392-402 429-372L429-372Q479-419 526-419L526-419Q581-419 605-400L605-400L605-548Q605-605 642-644L642-644L705-584Q689-569 689-548L689-548L689-330L605-284Q604-287 598-294Q593-301 584-311Q574-321 559-328Q544-336 527-336L527-336Q508-336 486-312L486-312Q498-300 509-269Q520-238 520-188L520-188L520 0L436 0L436-191Q436-250 394-293Q353-336 280-336L280-336Q221-336 180-301Q139-266 139-210L139-210Q139-172 147-147L147-147Q156-173 181-195Q207-217 247-217L247-217Q292-217 322-186Q352-156 352-113L352-113Q352-64 313-32Q275 0 214 0L214 0Q194 0 173-7Q152-13 130-29Q109-45 92-68Q75-91 65-128Q54-165 54-210L54-210Q54-238 62-266Q69-295 87-323Q105-350 130-371Q156-393 196-406Q235-419 284-419ZM247-154L247-154Q227-154 216-142Q204-129 204-113L204-113Q204-95 217-83Q229-71 247-71Q264-71 277-83Q289-95 289-113L289-113Q289-129 278-142Q266-154 247-154Z" fill="#000" transform="translate(0, 0)"></path></g></g></g><rect x="330" y="10" width="28" height="28" rx="4" stroke="#0004" stroke-width="1" fill="#fff"></rect><g transform="translate(330, 10)"><g transform="translate(14, 19.599999999999998) scale(0.0125) translate(-264, 270)"><path d="M40-339L40-339Q40-420 51-480Q62-540 87-588Q113-635 157-659Q201-684 264-684L264-684Q488-684 488-339L488-339Q488-260 476-199Q464-138 439-91Q413-45 369-20Q325 5 264 5L264 5Q40 5 40-339ZM125-339L125-339Q125-282 132-236Q140-190 156-153Q172-116 199-95Q226-75 264-75L264-75Q332-75 368-143Q403-210 403-339L403-339Q403-469 368-536Q332-604 263-604L263-604Q230-604 205-585Q179-565 165-536Q150-508 141-470Q131-432 128-401Q125-369 125-339Z" fill="#000" transform="translate(0, 0)"></path></g><g transform="translate(8.4, 8.4) scale(0.01) translate(-148, 270)"><path d="M95 202L95 202L35 202Q177-27 177-248L177-248Q177-298 173-340Q170-382 160-421Q150-460 141-489Q131-519 112-558Q93-597 78-624Q63-651 35-699L35-699L95-699Q133-651 161-605Q189-559 213-503Q237-448 249-383Q262-319 262-249L262-249Q262-126 216-11Q171 104 95 202Z" fill="#000" transform="translate(0, 0)"></path></g><g opacity="0.5"><g transform="translate(19.599999999999998, 8.4) scale(0.01) translate(-310.5, 270)"><path d="M311-345L311-345Q241-345 191-306Q142-267 142-210L142-210Q142-154 191-114Q240-74 311-74Q382-74 431-113Q480-153 480-210L480-210Q480-266 431-306Q382-345 311-345ZM311 0L311 0Q256 0 209-18Q161-35 128-64Q95-94 76-132Q58-170 58-210L58-210Q58-250 77-288Q96-326 129-355Q162-384 209-401Q257-419 311-419L311-419Q364-419 412-402Q459-384 492-356Q525-327 545-289Q564-251 564-210L564-210Q564-169 545-131Q526-93 493-64Q460-35 413-18Q365 0 311 0Z" fill="#000" transform="translate(0, 0)"></path></g></g></g><rect x="362" y="10" width="28" height="28" rx="4" stroke="#0004" stroke-width="1" fill="#fff"></rect><g transform="translate(362, 10)"><g transform="translate(14, 19.599999999999998) scale(0.0125) translate(-160, 270)"><path d="M290-209L30-209L30-289L290-289L290-209Z" fill="#000" transform="translate(0, 0)"></path></g><g transform="translate(8.4, 8.4) scale(0.01) translate(-265, 114)"><path d="M545 191L-15 191L-15 121L545 121L545 191Z" fill="#000" transform="translate(0, 0)"></path></g><g opacity="0.5"><g transform="translate(19.599999999999998, 8.4) scale(0.01) translate(-261, 270)"><path d="M308-429L213-429L213-524L308-524L308-429ZM485-371L485-302L36-302L36-371L485-371ZM308-149L213-149L213-244L308-244L308-149Z" fill="#000" transform="translate(0, 0)"></path></g></g></g><rect x="394" y="10" width="28" height="28" rx="4" stroke="#0004" stroke-width="1" fill="#fff"></rect><g transform="translate(394, 10)"><g transform="translate(14, 19.599999999999998) scale(0.0125) translate(-280.5, 270)"><path d="M507-483L507-404L53-404L53-483L507-483ZM507-275L507-195L53-195L53-275L507-275Z" fill="#000" transform="translate(0, 0)"></path></g><g transform="translate(8.4, 8.4) scale(0.01) translate(-280.5, 270)"><path d="M323-111L238-111L238-299L53-299L53-379L238-379L238-565L323-565L323-379L507-379L507-299L323-299L323-111Z" fill="#000" transform="translate(0, 0)"></path></g><g opacity="0.5"><g transform="translate(19.599999999999998, 8.4) scale(0.01) translate(-277, 270)"><path d="M131-134L74-189L222-337L76-482L131-540L277-394L424-539L480-482L334-337L480-191L424-134L277-280L131-134Z" fill="#000" transform="translate(0, 0)"></path></g></g></g><rect x="426" y="10" width="60" height="28" rx="4" stroke="#0004" stroke-width="1" fill="#fff"></rect><rect x="10" y="42" width="44" height="28" rx="4" stroke="#0004" stroke-width="1" fill="#fff"></rect><rect x="58" y="42" width="28" height="28" rx="4" stroke="#0004" stroke-width="1" fill="#fff"></rect><g transform="translate(58, 42)"><g transform="translate(19.599999999999998, 19.599999999999998) scale(0.0125) translate(-149.5, 275)"><path d="M64-783Q52-795 35-795Q17-795 5-783Q-8-771-8-753L-8-753Q-8-736 4-724Q16-711 35-711L35-711Q53-711 65-724Q76-737 76-753L76-753Q76-771 64-783ZM310-129Q297-142 280-142Q263-142 251-130Q238-118 238-99L238-99Q238-83 250-70Q263-58 280-58L280-58Q297-58 310-70Q323-82 323-99L323-99Q323-117 310-129ZM280 5L280 5Q236 5 205-25Q174-56 174-99L174-99L174-806Q174-843 147-868Q120-892 87-892L87-892Q60-892 43-884Q26-875 12-855L12-855Q15-855 27-856Q39-858 47-858L47-858Q82-858 111-831Q140-803 140-753L140-753Q140-710 110-679Q80-649 34-649L34-649Q15-649-5-656Q-25-664-44-679Q-63-695-75-722Q-87-750-87-786L-87-786Q-87-833-72-870Q-56-908-31-930Q-5-952 25-964Q56-975 88-975L88-975Q161-975 210-926Q259-876 259-806L259-806L259-202Q268-204 280-204L280-204Q324-204 355-174Q386-143 386-100L386-100Q386-57 356-26Q325 5 280 5Z" fill="#786ddc" transform="translate(0, 0)"></path></g><g transform="translate(8.4, 8.4) scale(0.01) translate(-452.5, 270)"><path d="M395-100L395-100Q395-145 426-174Q457-204 500-204L500-204L500-398Q500-436 494-458Q488-480 476-492Q464-504 440-516L440-516L331-446L227-514Q223-514 217-512Q211-510 201-502Q190-494 182-482Q173-471 167-449Q161-427 161-398L161-398L161-98L280-218Q227-248 227-309L227-309Q227-353 258-383Q289-413 332-413Q376-413 407-384Q437-354 439-309L439-309Q439-266 406-235L406-235L164 0L77 0L77-398Q77-480 116-533Q155-587 222-600L222-600L331-529L440-600Q504-588 544-533Q584-478 584-398L584-398L584-173L744-84L744-588L828-588L828 0L744 0L603-76Q601-67 595-55Q588-43 577-29Q565-14 545-4Q525 5 500 5L500 5Q455 5 425-26Q395-56 395-100ZM499-142L499-142Q482-142 470-130Q458-118 458-100L458-100Q458-82 470-70Q482-58 500-58L500-58Q518-58 530-70Q542-83 542-99Q542-116 529-129Q517-142 499-142ZM363-338Q351-351 332-351Q314-351 302-338Q290-326 290-309Q290-292 302-280Q314-268 332-268Q351-268 363-280Q375-292 375-309Q375-326 363-338Z" fill="#847f00" transform="translate(0, 0)"></path></g><g opacity="0.5"><g transform="translate(19.599999999999998, 8.4) scale(0.01) translate(NaN, NaN)"></g></g></g><rect x="90" y="42" width="28" height="28" rx="4" stroke="#0004" stroke-width="1" fill="#fff"></rect><g transform="translate(90, 42)"><g transform="translate(19.599999999999998, 19.599999999999998) scale(0.0125) translate(-321, 270)"><path d="M353-331Q341-344 323-344Q305-344 293-331Q281-319 281-302Q281-285 293-273Q305-261 323-261Q341-261 353-273Q365-285 365-302Q365-319 353-331ZM322-529L431-600Q494-588 532-533Q570-478 570-398L570-398L570 0L486 0L486-398Q486-455 476-476Q467-498 431-516L431-516L322-446L218-514Q197-512 183-495Q168-479 162-454Q157-430 157-398L157-398L157-98L271-211Q241-229 229-251Q218-274 218-302L218-302Q218-346 249-376Q279-406 323-406L323-406Q367-406 398-376Q429-346 429-300L429-300Q429-258 397-228L397-228L159 0L72 0L72-398Q72-432 78-460Q83-488 92-507Q101-526 114-542Q127-558 139-568Q151-577 165-584Q180-591 191-594Q201-597 212-600L212-600L322-529Z" fill="#009142" transform="translate(0, 0)"></path></g><g transform="translate(8.4, 8.4) scale(0.01) translate(-328, 270)"><path d="M522 122L522-349Q522-417 473-466Q425-516 353-516L353-516Q259-516 207-432L207-432L303-432L303-349L262-349L262-100Q262-56 230-25Q199 5 156 5L156 5Q111 5 80-26Q50-56 50-100L50-100Q50-144 81-174Q112-204 156-204L156-204Q167-204 177-202L177-202L177-349L100-349Q100-416 133-474Q167-532 225-566Q284-600 353-600L353-600Q406-600 454-579Q502-558 535-523Q568-489 587-443Q606-398 606-349L606-349L606 142L467 279L413 225L360 279L274 194Q272 196 265 204Q257 212 254 215Q251 218 244 225Q237 231 231 234Q225 236 217 240Q208 244 199 245Q189 247 178 247L178 247Q134 247 103 216Q73 186 73 143L73 143Q73 98 103 68Q134 38 178 38L178 38Q190 38 201 41Q212 44 219 46Q226 49 236 56Q246 64 249 66Q253 69 263 79Q273 90 274 90L274 90L324 41L376 93L326 143L360 176L413 122L467 176L522 122ZM178 100L178 100Q159 100 147 113Q135 125 135 143Q135 160 148 172Q160 184 178 184L178 184Q196 184 208 172Q220 160 220 143L220 143Q220 124 208 112Q195 100 178 100ZM185-129Q173-142 156-142Q139-142 126-129Q113-117 113-99L113-99Q113-81 126-69Q139-58 156-58L156-58Q173-58 185-70Q198-82 198-99Q198-117 185-129Z" fill="#847f00" transform="translate(0, 0)"></path></g><g opacity="0.5"><g transform="translate(19.599999999999998, 8.4) scale(0.01) translate(NaN, NaN)"></g></g></g><rect x="122" y="42" width="28" height="28" rx="4" stroke="#0004" stroke-width="1" fill="#fff"></rect><g transform="translate(122, 42)"><g transform="translate(19.599999999999998, 19.599999999999998) scale(0.0125) translate(-327, 270)"><path d="M504-537L504-537Q487-537 475-525Q463-514 463-495L463-495Q463-477 475-465Q487-453 504-453Q522-453 534-466Q547-478 547-495L547-495Q547-514 534-525Q521-537 504-537ZM504-600L504-600Q548-600 578-570Q609-540 609-495L609-495Q609-444 570-414L570-414Q609-380 609-311L609-311L609 0L525 0L525-318Q525-337 513-353Q501-368 473-368L473-368Q447-368 432-341L432-341L256 0L172 0L172-393Q158-390 150-390L150-390Q105-390 75-421Q45-452 45-495Q45-539 75-569Q106-600 150-600Q194-600 225-569Q256-539 256-495L256-495L256-148L367-371Q388-413 420-433L420-433Q399-459 399-495L399-495Q399-539 430-569Q461-600 504-600ZM180-525Q168-537 150-537Q133-537 121-525Q108-513 108-495Q108-477 121-465Q134-453 150-453Q167-453 180-465Q192-477 192-495L192-495Q192-513 180-525Z" fill="#008ce3" transform="translate(0, 0)"></path></g><g transform="translate(8.4, 8.4) scale(0.01) translate(-335, 270)"><path d="M178-418Q167-430 147-430Q128-430 116-418Q105-405 105-389L105-389Q105-372 116-360Q128-347 147-347Q166-347 178-360Q189-372 189-389L189-389Q189-405 178-418ZM480-397L480-480Q552-543 552-638L552-638L637-638Q637-574 616-527Q595-480 561-442L561-442Q585-413 585-377L585-377L585 0L224 0L224-83L265-83L265-218Q265-258 277-292Q288-325 302-345Q316-364 328-387Q339-410 339-432L339-432Q339-451 333-468Q327-485 317-497Q308-508 298-515Q289-522 279-527L279-527L232-498L182-527Q139-524 125-486L125-486Q143-492 156-492Q169-492 185-486Q201-480 216-469Q232-457 242-437Q252-417 252-392L252-392Q252-345 221-315Q191-285 147-285L147-285Q101-285 68-320Q34-355 33-416L33-416Q33-490 69-539Q104-588 165-600L165-600L232-561L301-600Q321-594 339-584Q358-574 378-556Q398-537 411-506Q424-475 424-435L424-435Q424-405 416-379Q408-353 398-334Q387-316 376-299Q365-282 357-262Q349-241 349-219L349-219L349-83L501-83L501-377Q501-392 480-397L480-397Z" fill="#ca5b27" transform="translate(0, 0)"></path></g><g opacity="0.5"><g transform="translate(19.599999999999998, 8.4) scale(0.01) translate(NaN, NaN)"></g></g></g><rect x="154" y="42" width="28" height="28" rx="4" stroke="#0004" stroke-width="1" fill="#fff"></rect><g transform="translate(154, 42)"><g transform="translate(19.599999999999998, 19.599999999999998) scale(0.0125) translate(-302, 270)"><path d="M117-99L117-232Q117-309 168-355Q218-400 302-400L302-400Q361-400 400-383Q438-366 470-337L470-337L470-349Q470-420 421-468Q372-516 302-516L302-516Q233-516 183-467Q134-418 134-349L134-349L49-349Q49-400 69-446Q90-493 124-527Q158-560 204-580Q251-600 302-600L302-600Q369-600 426-568Q484-536 519-478Q555-420 555-349L555-349L555 0L470 0L470-149Q470-220 421-268Q372-316 302-316L302-316Q202-316 202-233L202-233L202-202Q211-204 223-204L223-204Q267-204 298-174Q329-143 329-100L329-100Q329-57 298-26Q267 5 223 5Q179 5 148-25Q117-56 117-99L117-99ZM223-142L223-142Q207-142 194-129Q181-117 181-99L181-99Q181-83 193-70Q205-58 223-58L223-58Q240-58 253-70Q265-82 265-99L265-99Q265-117 253-129Q240-142 223-142Z" fill="#008ce3" transform="translate(0, 0)"></path></g><g transform="translate(8.4, 8.4) scale(0.01) translate(-435.5, 270)"><path d="M293-600L293-600Q344-600 391-580Q438-560 472-526Q505-492 525-446Q546-399 546-349L546-349L546-83L725-83L725-588L810-588L810 0L461 0L461-349Q461-418 413-467Q364-516 293-516L293-516Q263-516 236-506Q209-497 191-482Q173-467 163-455Q153-443 147-432L147-432L233-432L233-349L190-349L190-202Q198-204 211-204L211-204Q255-204 286-174Q317-143 317-100L317-100Q317-57 286-26Q255 5 211 5Q167 5 136-26Q105-56 105-99L105-99L105-349L40-349Q40-416 73-474Q107-532 165-566Q224-600 293-600ZM642 132L642 132Q642 174 615 194L615 194Q646 194 671 184Q697 173 714 154Q732 135 743 116Q754 97 765 72L765 72L832 117Q796 192 741 231Q685 270 599 270L599 270Q518 270 475 233Q432 195 432 141L432 141Q432 94 462 64Q492 34 537 34L537 34Q579 34 610 64Q642 93 642 132ZM536 97L536 97Q518 97 506 109Q494 122 494 139Q494 156 506 168Q518 180 536 180L536 180Q554 180 566 168Q579 156 579 139L579 139Q579 121 566 109Q553 97 536 97ZM211-142L211-142Q194-142 181-129Q169-117 169-99L169-99Q169-83 181-70Q194-58 211-58L211-58Q228-58 241-70Q254-82 254-99Q254-117 241-129Q228-142 211-142Z" fill="#ca5b27" transform="translate(0, 0)"></path></g><g opacity="0.5"><g transform="translate(19.599999999999998, 8.4) scale(0.01) translate(NaN, NaN)"></g></g></g><rect x="186" y="42" width="28" height="28" rx="4" stroke="#0004" stroke-width="1" fill="#fff"></rect><g transform="translate(186, 42)"><g transform="translate(19.599999999999998, 19.599999999999998) scale(0.0125) translate(-324, 270)"><path d="M469-383L469-383Q452-370 432-362L432-362Q454-350 470-332L470-332L470-349Q470-375 469-383ZM302-600L302-600Q359-600 408-577Q457-554 492-515L492-515Q514-558 514-609L514-609L599-609Q599-514 540-435L540-435Q555-394 555-349L555-349L555 0L470 0L470-149Q470-220 421-268Q371-316 302-316L302-316Q202-316 202-233L202-233L202-202Q211-204 223-204L223-204Q267-204 298-174Q329-143 329-100L329-100Q329-57 298-26Q267 5 223 5Q179 5 148-25Q117-56 117-99L117-99L117-232Q117-309 168-355Q218-400 302-400L302-400Q342-400 374-411Q405-423 438-447L438-447Q383-516 302-516L302-516Q233-516 183-467Q134-418 134-349L134-349L49-349Q49-400 69-446Q90-493 124-527Q158-560 204-580Q251-600 302-600ZM223-142L223-142Q207-142 194-129Q181-117 181-99L181-99Q181-83 193-70Q205-58 223-58L223-58Q240-58 253-70Q265-82 265-99L265-99Q265-117 253-129Q240-142 223-142Z" fill="#008ce3" transform="translate(0, 0)"></path></g><g transform="translate(8.4, 8.4) scale(0.01) translate(-341, 270)"><path d="M71-569Q102-600 145-600Q189-600 220-569Q251-538 251-495L251-495L251-212L377-588L431-588L558-213L558-859L642-859L642 0L558 0L405-447L251 0L167 0L167-393Q155-390 145-390L145-390Q101-390 70-421Q40-452 40-495Q40-539 71-569ZM175-525Q163-537 146-537Q128-537 116-525Q104-513 104-495Q104-477 116-465Q129-453 146-453Q163-453 175-465Q188-477 188-495L188-495Q188-513 175-525Z" fill="#0095a0" transform="translate(0, 0)"></path></g><g opacity="0.5"><g transform="translate(19.599999999999998, 8.4) scale(0.01) translate(NaN, NaN)"></g></g></g><rect x="218" y="42" width="28" height="28" rx="4" stroke="#0004" stroke-width="1" fill="#fff"></rect><g transform="translate(218, 42)"><g transform="translate(19.599999999999998, 19.599999999999998) scale(0.0125) translate(-307.5, 270)"><path d="M148-600L148-600Q192-600 223-569Q253-538 253-495L253-495L253-83L488-83L488-859L572-859L572 0L127 0L127-83L169-83L169-393Q158-390 148-390L148-390Q103-390 73-421Q42-452 42-495Q42-539 73-569Q104-600 148-600ZM148-537L148-537Q131-537 118-525Q106-513 106-495Q106-477 119-465Q131-453 148-453Q165-453 177-465Q190-477 190-495Q190-513 177-525Q165-537 148-537Z" fill="#0095a0" transform="translate(0, 0)"></path></g><g transform="translate(8.4, 8.4) scale(0.01) translate(-349.5, 270)"><path d="M313-516L313-516Q279-516 249-504Q220-492 201-473Q181-455 169-436Q157-417 151-399L151-399L71-424Q96-497 160-548Q225-600 313-600L313-600Q365-600 412-580Q459-560 493-526Q526-492 546-446Q566-399 566-348L566-348L566-195Q589-187 609-162Q630-138 630-100L630-100Q630-56 599-25Q568 5 524 5L524 5Q481 5 454-21Q427-46 421-79L421-79L282 0L197 0L197-166Q189-164 176-164L176-164Q151-164 132-171Q113-178 102-189Q90-200 83-214Q75-228 73-242Q70-255 70-269L70-269Q70-313 101-343Q132-373 176-373L176-373Q221-373 251-342Q282-311 282-268L282-268L282-82L482-195L482-348Q482-417 433-467Q384-516 313-516ZM524-142L524-142Q507-142 495-130Q482-118 482-99L482-99Q482-83 494-70Q506-58 524-58Q542-58 554-70Q566-83 566-99L566-99Q566-117 553-129Q540-142 524-142ZM176-310L176-310Q158-310 146-298Q134-285 134-269L134-269Q134-251 146-239Q159-227 176-227L176-227Q193-227 206-239Q218-251 218-269L218-269Q218-285 206-298Q194-310 176-310Z" fill="#ca5b27" transform="translate(0, 0)"></path></g><g opacity="0.5"><g transform="translate(19.599999999999998, 8.4) scale(0.01) translate(NaN, NaN)"></g></g></g><rect x="250" y="42" width="28" height="28" rx="4" stroke="#0004" stroke-width="1" fill="#fff"></rect><g transform="translate(250, 42)"><g transform="translate(14, 19.599999999999998) scale(0.0125) translate(158, 554)"><path d="M-198-722L-198-722Q-135-722-89-750Q-42-779-1-845L-1-845L65-800Q-27-646-213-646L-213-646Q-254-646-285-656Q-316-667-334-682Q-352-697-363-715Q-374-734-378-749Q-381-763-381-775L-381-775Q-381-822-351-852Q-321-882-277-882L-277-882Q-233-882-202-852Q-171-822-171-784L-171-784Q-171-742-198-722ZM-246-807Q-258-820-277-820Q-295-820-307-807Q-319-795-319-778Q-319-761-307-749Q-295-736-277-736L-277-736Q-259-736-247-749Q-234-761-234-778Q-234-795-246-807Z" fill="#786ddc" transform="translate(0, 0)"></path></g><g transform="translate(8.4, 8.4) scale(0.01) translate(320.5, 612)"><path d="M-64-882L-64-882Q-64-862-71-844Q-78-827-89-815Q-100-804-109-797Q-119-790-128-786L-128-786Q-89-733-80-658L-80-658L-576-704Q-562-754-533-792Q-504-829-469-849Q-434-870-400-879Q-366-888-334-888L-334-888Q-307-888-276-882L-276-882Q-276-925-245-956Q-215-986-170-986L-170-986Q-126-986-95-956Q-64-926-64-882ZM-170-924L-170-924Q-188-924-200-911Q-212-899-212-882L-212-882Q-212-864-199-852Q-187-840-170-840L-170-840Q-153-840-140-852Q-128-864-128-882L-128-882Q-128-899-140-911Q-152-924-170-924ZM-440-765L-199-742Q-206-750-214-758Q-222-766-238-779Q-255-791-280-799Q-304-807-332-807L-332-807Q-351-807-390-795Q-428-782-440-765L-440-765Z" fill="#786ddc" transform="translate(0, 0)"></path></g><g opacity="0.5"><g transform="translate(19.599999999999998, 8.4) scale(0.01) translate(174.5, 148)"><path d="M-114 181Q-138 205-173 205Q-209 205-234 181Q-259 157-259 121L-259 121Q-259 86-234 62Q-209 38-173 38L-173 38Q-137 38-114 63Q-90 87-90 121L-90 121Q-90 157-114 181Z" fill="#786ddc" transform="translate(0, 0)"></path></g></g></g><rect x="282" y="42" width="28" height="28" rx="4" stroke="#0004" stroke-width="1" fill="#fff"></rect><g transform="translate(282, 42)"><g transform="translate(19.599999999999998, 19.599999999999998) scale(0.0125) translate(-300, 270)"><path d="M468 0L468-349Q468-418 420-467Q372-516 300-516L300-516Q248-516 214-494Q180-472 154-432L154-432L240-432L240-349L197-349L197 0L113 0L113-349L47-349Q47-403 68-450Q89-497 124-529Q159-562 205-581Q250-600 300-600L300-600Q368-600 427-566Q485-532 519-474Q552-417 552-349L552-349L552 0L468 0Z" fill="#da407e" transform="translate(0, 0)"></path></g><g transform="translate(8.4, 8.4) scale(0.01) translate(-281, 270)"><path d="M151-432L338-432Q391-432 429-395Q466-358 466-306L466-306L466 0L103 0L103-83L145-83L145-349L45-349Q45-418 79-475Q113-533 171-566Q229-600 298-600L298-600Q370-600 427-565Q484-530 517-475L517-475L443-433Q443-435 437-443Q432-450 420-463Q407-476 392-488Q376-499 352-508Q328-516 301-516L301-516Q285-516 272-515Q259-514 240-509Q222-504 207-495Q193-487 177-471Q162-455 151-432L151-432ZM382-83L382-306Q382-323 372-336Q363-349 341-349L341-349L229-349L229-83L382-83Z" fill="#009142" transform="translate(0, 0)"></path></g><g opacity="0.5"><g transform="translate(19.599999999999998, 8.4) scale(0.01) translate(NaN, NaN)"></g></g></g><rect x="314" y="42" width="28" height="28" rx="4" stroke="#0004" stroke-width="1" fill="#fff"></rect><g transform="translate(314, 42)"><g transform="translate(19.599999999999998, 19.599999999999998) scale(0.0125) translate(328.5, 565.5)"><path d="M-440-767L-199-744Q-206-752-214-760Q-222-768-238-781Q-255-794-280-801Q-304-809-332-809L-332-809Q-351-809-390-797Q-428-785-440-767L-440-767ZM-80-660L-576-706Q-562-757-533-794Q-504-832-469-852Q-434-872-400-881Q-366-891-334-891L-334-891Q-290-891-248-876Q-207-861-171-833Q-135-805-111-761Q-86-716-80-660L-80-660Z" fill="#786ddc" transform="translate(0, 0)"></path></g><g transform="translate(8.4, 8.4) scale(0.01) translate(-245, 270)"><path d="M372 36L372 36Q416 36 447 67Q478 98 478 140L478 140L478 283L349 410L294 356L241 409L156 326Q154 327 146 335Q139 343 136 346Q133 349 125 355Q117 362 112 365Q106 368 97 371Q89 375 79 377Q70 378 60 378L60 378Q15 378-15 347Q-46 316-46 273Q-46 230-16 199Q15 169 60 169L60 169Q72 169 83 172Q95 174 102 177Q110 180 119 188Q128 195 132 199Q136 202 145 211Q154 220 156 222L156 222L206 173L258 224L208 273L241 307L294 254L349 308L393 263L393 243Q383 244 372 244L372 244Q328 244 297 214Q267 184 267 140L267 140Q267 98 297 67Q327 36 372 36ZM402 111Q390 98 372 98Q354 98 342 111Q330 123 330 140Q330 157 342 169Q354 182 372 182L372 182Q390 182 402 169Q414 156 414 140L414 140Q414 123 402 111ZM89 244Q77 232 59 232Q41 232 29 244Q17 256 17 273L17 273Q17 291 30 303Q43 315 59 315L59 315Q76 315 89 303Q101 291 101 273L101 273Q101 256 89 244ZM170-432L357-432Q405-432 446-400Q487-368 487-325L487-325Q487-315 485-306L485-306L423 0L320 0L295-124Q274-114 251-114L251-114Q207-114 176-145Q146-176 146-219L146-219Q146-263 176-293Q207-323 251-323L251-323Q276-323 296-314Q316-305 328-291Q339-278 346-265Q352-253 354-243L354-243L372-134L402-307Q402-309 402-313L402-313Q402-328 390-338Q378-349 360-349L360-349L64-349Q64-418 98-475Q132-533 190-566Q248-600 316-600L316-600Q389-600 446-565Q503-531 535-475L535-475L462-433Q456-444 446-455Q436-467 418-482Q401-497 374-506Q347-516 316-516Q286-516 259-506Q233-497 215-482Q197-466 187-455Q177-443 170-432L170-432ZM251-261L251-261Q233-261 221-249Q209-236 209-219L209-219Q209-201 221-189Q234-177 251-177L251-177Q269-177 281-189Q293-201 293-219Q293-237 281-249Q269-261 251-261Z" fill="#847f00" transform="translate(0, 0)"></path></g><g opacity="0.5"><g transform="translate(19.599999999999998, 8.4) scale(0.01) translate(NaN, NaN)"></g></g></g><rect x="346" y="42" width="28" height="28" rx="4" stroke="#0004" stroke-width="1" fill="#fff"></rect><g transform="translate(346, 42)"><g transform="translate(19.599999999999998, 19.599999999999998) scale(0.0125) translate(-307.5, 270)"><path d="M73-569Q104-600 148-600Q191-600 222-570Q254-540 254-495L254-495L254-83L488-83L488-588L572-588L572 0L127 0L127-83L169-83L169-393Q156-390 148-390L148-390Q103-390 73-421Q42-452 42-495Q42-539 73-569ZM148-537L148-537Q131-537 118-525Q106-513 106-495Q106-477 119-465Q131-453 148-453Q165-453 177-465Q190-477 190-495Q190-513 177-525Q165-537 148-537Z" fill="#0095a0" transform="translate(0, 0)"></path></g><g transform="translate(8.4, 8.4) scale(0.01) translate(-328, 270)"><path d="M353-600L353-600Q406-600 454-579Q502-558 535-523Q568-489 587-443Q606-398 606-349L606-349L606 142L467 279L382 194Q380 196 372 204Q364 212 361 215Q358 218 350 224Q343 231 337 233Q331 236 323 240Q314 244 304 245Q295 247 284 247L284 247Q241 247 210 216Q179 186 179 143L179 143Q179 98 210 68Q242 38 285 38L285 38Q295 38 304 39Q313 41 322 45Q330 49 336 52Q342 54 349 61Q357 68 360 70Q364 73 372 81Q380 89 382 90L382 90L431 42L484 93L434 143L467 176L522 122L522-349Q522-417 473-466Q425-516 353-516L353-516Q303-516 264-492Q225-467 207-432L207-432L303-432L303-349L262-349L262-100Q262-56 230-25Q199 5 156 5L156 5Q111 5 80-26Q50-56 50-100L50-100Q50-144 81-174Q112-204 156-204L156-204Q167-204 177-202L177-202L177-349L100-349Q100-416 133-474Q167-532 225-566Q284-600 353-600ZM285 100L285 100Q267 100 255 113Q243 125 243 143Q243 160 255 172Q267 184 285 184L285 184Q301 184 314 172Q327 160 327 143Q327 125 314 113Q301 100 285 100ZM185-129Q173-142 156-142Q139-142 126-129Q113-117 113-99L113-99Q113-81 126-69Q139-58 156-58L156-58Q173-58 185-70Q198-82 198-99Q198-117 185-129Z" fill="#847f00" transform="translate(0, 0)"></path></g><g opacity="0.5"><g transform="translate(19.599999999999998, 8.4) scale(0.01) translate(NaN, NaN)"></g></g></g><rect x="378" y="42" width="28" height="28" rx="4" stroke="#0004" stroke-width="1" fill="#fff"></rect><g transform="translate(378, 42)"><g transform="translate(14, 19.599999999999998) scale(0.0125) translate(297, 579)"><path d="M-390-641L-390-641Q-513-656-513-760L-513-760Q-513-789-504-811Q-495-833-480-847Q-465-861-446-870Q-426-878-407-882Q-387-885-367-885L-367-885Q-354-885-320-882Q-286-879-259-879L-259-879Q-145-879-128-938L-128-938L-80-910Q-105-825-248-824L-248-824Q-278-824-312-827Q-346-829-360-829L-360-829Q-390-829-409-824Q-428-818-437-808Q-446-797-449-786Q-452-775-452-759L-452-759Q-452-715-421-709L-421-709Q-421-731-410-742Q-398-753-382-753L-382-753Q-363-753-347-744Q-330-734-315-723Q-300-712-286-709L-286-709Q-288-716-288-724L-288-724Q-288-760-263-784Q-238-808-203-808L-203-808Q-169-808-144-784Q-119-760-119-724L-119-724Q-119-710-124-696Q-129-682-140-669Q-150-656-169-649Q-188-641-212-641L-212-641Q-243-641-268-649Q-294-657-308-666Q-322-676-338-684Q-355-692-368-692L-368-692Q-381-692-386-685Q-391-677-391-661L-391-661Q-391-656-390-641ZM-181-746Q-191-756-203-756Q-216-756-225-747Q-235-738-235-724L-235-724Q-235-711-226-702Q-217-693-203-693Q-190-693-181-702Q-172-712-172-724L-172-724Q-172-737-181-746Z" fill="#786ddc" transform="translate(0, 0)"></path></g><g transform="translate(8.4, 8.4) scale(0.01) translate(-350.5, 270)"><path d="M440-443L440-443Q440-408 433-381Q426-354 416-336Q406-318 397-300Q387-281 380-254Q373-227 372-193L372-193L571-83L571-588L655-588L655 0L571 0L372-110Q369-66 335-30Q300 5 247 5L247 5Q195 5 158-31Q121-68 121-120Q121-172 158-208Q195-244 247-244L247-244Q271-244 291-237L291-237Q295-272 304-299Q312-326 321-342Q330-358 338-371Q345-384 350-399Q355-414 355-432L355-432Q355-451 349-468Q343-485 333-497Q323-508 314-515Q305-522 295-527L295-527L248-498L197-527Q155-524 141-486L141-486Q159-492 172-492L172-492Q185-492 201-486Q217-480 233-469Q248-457 259-437Q269-417 269-392L269-392Q269-345 238-315Q206-285 163-285Q120-285 83-320Q46-356 46-416L46-416Q46-458 60-496Q74-534 106-563Q137-592 181-600L181-600L248-561L317-600Q330-596 344-590Q358-584 376-571Q394-558 407-542Q420-525 430-499Q440-473 440-443ZM277-149Q265-161 247-161Q228-161 216-149Q204-137 204-120L204-120Q204-102 217-90Q229-78 247-78Q264-78 277-90Q289-102 289-120L289-120Q289-137 277-149ZM163-430L163-430Q145-430 133-418Q121-406 121-389L121-389Q121-372 134-359Q147-347 163-347L163-347Q180-347 193-359Q205-371 205-389L205-389Q205-406 193-418Q181-430 163-430Z" fill="#da407e" transform="translate(0, 0)"></path></g><g opacity="0.5"><g transform="translate(19.599999999999998, 8.4) scale(0.01) translate(-365.5, 270)"><path d="M251 191L65 191L65-687L251-687L251-618L150-618L150 121L251 121L251 191Z" fill="#000" transform="translate(0, 0)"></path><path d="M27-214L27-283Q49-285 65-292Q82-299 92-311Q103-323 109-337Q116-350 119-372Q122-395 123-415Q124-435 124-468L124-468Q124-498 124-518Q125-537 126-560Q128-584 131-598Q134-613 139-629Q144-645 152-655Q160-664 171-674Q182-683 196-688Q211-693 230-696Q248-699 272-699L272-699L298-699L298-630L284-630Q264-630 254-629Q244-628 234-622Q224-615 220-606Q216-596 212-575Q208-555 207-528Q207-501 207-457L207-457Q207-389 198-351Q188-313 169-292Q150-271 110-248L110-248Q168-222 188-177Q208-132 208-38L208-38Q208-7 209 14Q209 35 210 54Q212 73 214 84Q216 95 221 105Q225 115 230 120Q235 124 243 128Q252 131 261 132Q270 133 284 133L284 133L298 133L298 202L272 202Q248 202 230 199Q211 196 196 191Q182 186 171 176Q160 166 152 157Q144 147 139 131Q134 115 131 101Q128 86 126 64Q125 42 124 23Q124 5 124-23L124-23Q124-47 124-62Q123-77 122-96Q121-114 120-125Q118-136 114-150Q111-163 106-170Q101-178 94-186Q86-195 77-199Q67-204 55-208Q42-212 27-214L27-214Z" fill="#000" transform="translate(367, 0)"></path></g></g></g><rect x="410" y="42" width="28" height="28" rx="4" stroke="#0004" stroke-width="1" fill="#fff"></rect><g transform="translate(410, 42)"><g transform="translate(14, 19.599999999999998) scale(0.0125) translate(-387, 270)"><path d="M541-733L541-733Q565-733 586-723Q607-712 615-703Q624-694 630-685L630-685L670-726L729-666L647-584L647 0L563 0L409-397L256 0L172 0L172-393Q160-390 150-390L150-390Q105-390 75-421Q45-452 45-495Q45-539 75-569Q106-600 150-600L150-600Q195-600 225-569Q256-538 256-495L256-495L256-202L382-524L436-524L563-203L563-526Q554-524 541-524L541-524Q498-524 466-554Q435-585 435-629L435-629Q435-672 466-703Q496-733 541-733ZM571-658Q559-670 541-670Q523-670 511-658Q499-645 499-628L499-628Q499-611 511-599Q523-587 540-587Q558-587 571-599Q583-611 583-628L583-628Q583-645 571-658ZM180-525Q168-537 150-537Q133-537 121-525Q108-513 108-495Q108-477 121-465Q134-453 150-453Q167-453 180-465Q192-477 192-495L192-495Q192-513 180-525Z" fill="#008ce3" transform="translate(0, 0)"></path></g><g transform="translate(8.4, 8.4) scale(0.01) translate(-371.5, 270)"><path d="M625 0L625-473Q625-491 613-504Q600-517 580-517L580-517Q557-517 553-503L553-503L392 0L265 0L265-218Q265-251 273-279Q281-307 292-326Q302-345 313-361Q324-378 332-396Q339-413 339-432L339-432Q339-469 320-492Q301-516 279-527L279-527L232-498L182-527Q139-524 125-486L125-486Q143-492 157-492L157-492Q169-492 185-486Q201-480 216-469Q232-458 242-437Q252-417 252-392L252-392Q252-345 221-315Q190-285 147-285L147-285Q101-285 68-321Q34-357 34-418L34-418Q34-492 69-540Q104-589 166-600L166-600L232-561L302-600Q316-596 331-589Q345-583 362-569Q380-556 393-539Q406-522 415-496Q424-469 424-438L424-438Q424-405 416-379Q408-352 398-334Q387-316 376-299Q365-283 357-262Q350-241 350-218L350-218L350-88L499-541Q501-548 507-556Q512-564 523-575Q534-585 554-593Q573-600 596-600L596-600Q613-600 631-593Q649-586 668-572Q686-559 698-533Q710-507 710-474L710-474L710 0L625 0ZM178-418Q166-430 147-430Q128-430 117-418Q105-405 105-389Q105-372 117-359Q129-347 147-347Q165-347 177-359Q189-371 189-389L189-389Q189-406 178-418Z" fill="#847f00" transform="translate(0, 0)"></path></g><g opacity="0.5"><g transform="translate(19.599999999999998, 8.4) scale(0.01) translate(-339.5, 270)"><path d="M204-687L204 191L18 191L18 121L120 121L120-618L18-618L18-687L204-687Z" fill="#000" transform="translate(0, 0)"></path><path d="M294-283L294-283L294-214Q278-212 266-208Q254-204 244-199Q234-195 227-186Q220-178 215-170Q210-163 206-150Q203-136 201-125Q199-114 198-96Q197-77 197-62Q197-47 197-23L197-23Q197 5 196 23Q196 42 194 64Q193 86 190 101Q187 115 181 131Q176 147 169 157Q161 166 150 176Q139 186 124 191Q110 196 91 199Q72 202 49 202L49 202L23 202L23 133L37 133Q51 133 60 132Q69 131 77 128Q86 124 91 120Q96 115 100 105Q105 95 107 84Q109 73 110 54Q112 35 112 14Q113-7 113-38L113-38Q113-132 133-177Q153-222 210-248L210-248Q170-271 151-292Q132-313 123-351Q114-389 114-457L114-457Q114-501 113-528Q113-555 109-575Q105-596 101-606Q97-615 87-622Q76-628 67-629Q57-630 37-630L37-630L23-630L23-699L49-699Q72-699 91-696Q110-693 124-688Q139-683 150-674Q161-664 169-655Q176-645 181-629Q187-613 190-598Q193-584 194-560Q196-537 196-518Q197-498 197-468L197-468Q197-435 198-415Q199-395 202-372Q205-350 211-337Q218-323 228-311Q239-299 255-292Q271-285 294-283Z" fill="#000" transform="translate(367, 0)"></path></g></g></g><rect x="442" y="42" width="44" height="28" rx="4" stroke="#0004" stroke-width="1" fill="#fff"></rect><g transform="translate(442, 42)"><g transform="translate(22, 19.599999999999998) scale(0.0125) translate(-285, 270)"><path d="M84-568Q114-600 159-600Q205-600 235-569Q265-538 265-494L265-494Q265-460 240-434L240-434Q251-431 263-431L263-431Q334-431 382-475Q431-519 431-588L431-588L515-588L515 0L431 0L431-413Q405-387 356-368Q308-348 236-348L236-348Q195-348 163-358Q131-369 111-385Q91-400 78-420Q65-441 60-458Q54-476 54-492L54-492Q54-537 84-568ZM160-537L160-537Q142-537 129-525Q117-512 117-495L117-495Q117-479 129-466Q141-453 160-453Q179-453 190-466Q202-479 202-495L202-495Q202-513 189-525Q177-537 160-537Z" fill="#786ddc" transform="translate(0, 0)"></path></g><g transform="translate(13.2, 8.4) scale(0.01) translate(-429.5, 270)"><path d="M360-100L360-100Q360-143 391-174Q422-204 466-204L466-204L466-349Q466-418 417-467Q368-516 298-516L298-516Q273-516 250-509Q227-503 212-493Q197-484 183-472Q170-459 163-450Q157-441 151-432L151-432L238-432L238-349L195-349L195-202Q204-204 216-204L216-204Q260-204 291-174Q322-143 322-100L322-100Q322-57 291-26Q260 5 216 5L216 5Q173 5 142-26Q111-57 111-99L111-99L111-349L45-349Q45-416 78-474Q112-532 170-566Q228-600 298-600L298-600Q366-600 424-566Q483-532 517-474Q550-417 550-349L550-349L550-175L730-83L730-588L814-588L814 0L730 0L570-81Q564-46 535-20Q507 5 466 5L466 5Q421 5 391-26Q360-57 360-100ZM495-130Q483-142 466-142Q449-142 437-130Q424-118 424-99Q424-81 437-69Q450-58 466-58L466-58Q484-58 496-70Q508-83 508-99L508-99Q508-118 495-130ZM216-142L216-142Q198-142 186-129Q174-117 174-99L174-99Q174-83 186-70Q198-58 216-58L216-58Q233-58 246-70Q258-82 258-99Q258-117 246-129Q233-142 216-142Z" fill="#ca5b27" transform="translate(0, 0)"></path></g><g opacity="0.5"><g transform="translate(30.799999999999997, 8.4) scale(0.01) translate(-307, 270)"><path d="M267 12L199 12L0-699L68-699L267 12Z" fill="#000" transform="translate(0, 0)"></path><path d="M167 202L83 202L83-699L167-699L167 202Z" fill="#000" transform="translate(447, 0)"></path></g></g></g><rect x="10" y="74" width="52" height="28" rx="4" stroke="#0004" stroke-width="1" fill="#fff"></rect><rect x="66" y="74" width="28" height="28" rx="4" stroke="#0004" stroke-width="1" fill="#fff"></rect><g transform="translate(66, 74)"><g transform="translate(14, 19.599999999999998) scale(0.0125) translate(-218.5, 270)"><path d="M216-569Q247-600 290-600Q334-600 365-569Q396-538 396-495L396-495L396 0L312 0L41-268L92-319L312-103L312-393Q299-390 291-390L291-390Q246-390 216-422Q185-453 185-495L185-495Q185-539 216-569ZM291-537L291-537Q272-537 260-525Q248-512 248-495Q248-478 260-465Q272-453 291-453L291-453Q308-453 320-465Q332-478 332-495Q332-512 320-525Q308-537 291-537Z" fill="#da407e" transform="translate(0, 0)"></path></g><g transform="translate(8.4, 8.4) scale(0.01) translate(-354.5, 270)"><path d="M468-318L468-318Q468-277 441-256L441-256Q478-256 507-272L507-272L507-588L591-588L591-379L658-334Q629-274 591-240L591-240L591 0L136 0L136-83L179-83L179-393Q165-390 157-390L157-390Q113-390 82-421Q52-452 52-495Q52-539 83-569Q113-600 157-600L157-600Q201-600 232-569Q263-539 263-495L263-495L263-344Q266-353 271-362Q276-372 287-385Q298-399 317-408Q337-416 362-416L362-416Q405-416 436-386Q468-356 468-318ZM507-83L507-193Q466-180 421-180L421-180Q359-180 317-206Q276-233 263-280L263-280L263-83L507-83ZM393-341Q381-354 362-354Q344-354 332-341Q320-329 320-312L320-312Q320-295 332-283Q345-270 362-270Q380-270 392-283Q405-295 405-312L405-312Q405-329 393-341ZM158-537L158-537Q140-537 128-525Q115-513 115-495Q115-477 128-465Q141-453 158-453Q174-453 187-465Q199-477 199-495Q199-513 187-525Q174-537 158-537Z" fill="#008ce3" transform="translate(0, 0)"></path></g><g opacity="0.5"><g transform="translate(19.599999999999998, 8.4) scale(0.01) translate(-288, 270)"><path d="M116-415Q107-407 95-407Q83-407 75-415Q67-423 67-435Q67-447 75-455Q83-464 95-464Q108-464 116-455Q124-447 124-435Q124-423 116-415ZM204-482Q196-474 184-474Q172-474 164-482Q156-490 156-502Q156-514 164-522Q172-531 184-531Q196-531 204-523Q212-515 212-502Q212-489 204-482ZM310-514Q302-506 290-506Q278-506 270-514Q262-522 262-534Q262-546 270-554Q278-563 290-563Q302-563 310-555Q318-547 318-534Q318-521 310-514ZM59-216Q51-209 38-209Q26-209 18-217Q10-225 10-237Q10-249 18-257Q26-265 38-265Q51-265 59-257Q67-249 67-237Q67-224 59-216ZM95-117L95-117Q83-117 75-125Q67-133 67-145L67-145Q67-157 75-165Q83-173 95-173Q107-173 116-165Q124-157 124-145Q124-133 115-125Q107-117 95-117ZM183-54Q174-46 162-46Q150-46 142-54Q134-62 134-74Q134-86 142-94Q150-103 162-103L162-103Q174-103 182-95Q191-87 191-74L191-74Q191-61 183-54ZM286-3L286-3Q274-3 266-11Q258-19 258-31L258-31Q258-43 266-52Q274-60 286-60Q299-60 307-52Q315-44 315-31Q315-19 307-11Q298-3 286-3ZM445-40Q436-32 424-32Q412-32 404-40Q396-48 396-60Q396-72 404-80Q412-89 424-89Q437-89 445-80Q453-72 453-60Q453-48 445-40ZM522-118Q514-110 502-110Q490-110 482-118Q474-126 474-138Q474-150 482-158Q489-166 502-166Q515-166 523-158Q531-150 531-138Q531-126 522-118ZM558-213Q549-205 537-205Q525-205 517-213Q509-221 509-233Q509-246 517-254Q525-262 537-262L537-262Q549-262 557-254Q566-247 566-233L566-233Q566-221 558-213ZM551-326Q543-318 531-318Q518-318 510-326Q503-334 503-346Q503-359 510-367Q518-375 531-375Q543-375 551-367Q559-359 559-346Q559-334 551-326ZM480-418L480-418Q468-418 460-426Q452-434 452-446L452-446Q452-458 460-466Q468-474 480-474Q493-474 501-466Q509-458 509-446Q509-434 501-426Q492-418 480-418ZM413-493Q405-485 392-485Q380-485 372-493Q364-501 364-513Q364-525 372-533Q380-541 392-541Q405-541 413-533Q421-525 421-513Q421-501 413-493ZM45-318L45-318Q33-318 25-326Q17-334 17-346L17-346Q17-358 25-367Q33-375 45-375Q58-375 66-367Q74-359 74-346Q74-334 66-326Q57-318 45-318Z" fill="#000" transform="translate(0, 0)"></path></g></g></g><rect x="98" y="74" width="28" height="28" rx="4" stroke="#0004" stroke-width="1" fill="#fff"></rect><g transform="translate(98, 74)"><g transform="translate(14, 19.599999999999998) scale(0.0125) translate(-193.5, 270)"><path d="M224-129Q212-142 193-142Q174-142 163-129Q151-116 151-99Q151-83 163-70Q175-58 193-58Q211-58 223-70Q235-83 235-99Q235-116 224-129ZM268-26Q238 5 193 5Q149 5 118-26Q88-57 88-99L88-99L88-588L173-588L173-202Q182-204 193-204L193-204Q238-204 268-173Q298-143 298-100Q298-57 268-26Z" fill="#786ddc" transform="translate(0, 0)"></path></g><g transform="translate(8.4, 8.4) scale(0.01) translate(-302, 270)"><path d="M250-129Q237-142 220-142Q203-142 191-129Q179-117 179-99Q179-82 191-70Q203-58 220-58L220-58Q238-58 250-70Q263-82 263-99Q263-117 250-129ZM302-600L302-600Q353-600 400-580Q447-560 481-526Q515-492 535-446Q555-399 555-349L555-349L555 0L471 0L471-349Q471-418 422-467Q373-516 302-516L302-516Q272-516 245-506Q218-497 200-482Q183-467 173-455Q163-443 157-432L157-432L242-432L242-349L199-349L199-202Q208-204 221-204L221-204Q264-204 296-174Q327-143 327-100L327-100Q327-57 296-26Q265 5 221 5Q177 5 146-26Q115-56 115-99L115-99L115-349L49-349Q49-416 83-474Q116-532 175-566Q233-600 302-600Z" fill="#009142" transform="translate(0, 0)"></path></g><g opacity="0.5"><g transform="translate(19.599999999999998, 8.4) scale(0.01) translate(-367.5, 270)"><path d="M368 11L368 11Q299 11 240-23Q182-56 148-114Q114-172 114-240Q114-308 148-366Q182-424 240-457Q299-491 368-491Q436-491 495-457Q553-424 586-366Q620-308 620-240Q620-172 586-114Q552-56 494-23Q436 11 368 11ZM368-428L368-428Q291-428 234-374Q177-320 177-240L177-240Q177-187 204-143Q231-99 274-75Q318-52 368-52L368-52Q446-52 502-107Q557-162 557-240L557-240Q557-318 501-373Q445-428 368-428ZM368-115L368-115Q314-115 277-151Q241-188 241-240L241-240Q241-293 278-329Q315-365 368-365L368-365Q422-365 458-328Q494-291 494-240Q494-189 458-152Q422-115 368-115ZM368-303L368-303Q342-303 323-285Q305-267 305-240Q305-213 323-195Q342-177 368-177L368-177Q394-177 412-195Q430-214 430-240Q430-266 412-285Q394-303 368-303Z" fill="#000" transform="translate(0, 0)"></path></g></g></g><rect x="130" y="74" width="28" height="28" rx="4" stroke="#0004" stroke-width="1" fill="#fff"></rect><g transform="translate(130, 74)"><g transform="translate(14, 19.599999999999998) scale(0.0125) translate(-275.5, 270)"><path d="M279-142L279-142Q263-142 250-130Q237-118 237-100Q237-82 250-70Q262-58 279-58L279-58Q297-58 309-70Q321-83 321-99L321-99Q321-117 308-129Q296-142 279-142ZM173-100L173-100Q173-143 204-174Q235-204 279-204L279-204Q292-204 300-202L300-202L300-306Q300-329 287-339Q274-349 257-349L257-349L40-349Q40-418 74-475Q108-533 166-566Q224-600 293-600L293-600Q365-600 422-565Q479-531 511-475L511-475L438-433Q432-444 422-456Q412-467 394-482Q376-497 350-507Q323-516 293-516Q262-516 235-506Q209-497 191-482Q173-466 163-455Q153-443 146-432L146-432L255-432Q277-432 298-425Q320-417 340-403Q360-388 372-363Q385-338 385-306L385-306L385-100Q385-56 354-25Q323 5 279 5L279 5Q234 5 204-26Q173-57 173-100Z" fill="#008ce3" transform="translate(0, 0)"></path></g><g transform="translate(8.4, 8.4) scale(0.01) translate(-321.5, 270)"><path d="M459-142L459-142Q442-142 429-130Q417-118 417-99L417-99Q417-83 429-70Q441-58 459-58L459-58Q475-58 488-70Q501-82 501-99L501-99Q501-117 488-129Q476-142 459-142ZM534-26Q503 5 459 5Q414 5 384-26Q353-56 353-99L353-99L353-588L437-588L437-202Q446-204 459-204L459-204Q503-204 534-174Q565-143 565-100L565-100Q565-57 534-26ZM214-129Q203-142 184-142Q165-142 153-129Q142-116 142-99Q142-83 154-70Q166-58 184-58Q202-58 214-70Q226-83 226-99Q226-116 214-129ZM259-26Q228 5 184 5Q139 5 109-26Q79-57 79-99L79-99L79-588L163-588L163-202Q173-204 184-204L184-204Q228-204 259-173Q289-143 289-100Q289-57 259-26Z" fill="#786ddc" transform="translate(0, 0)"></path></g><g opacity="0.5"><g transform="translate(19.599999999999998, 8.4) scale(0.01) translate(-580, 270)"><path d="M357-263L357-263Q357-280 345-293Q333-305 315-305L315-305Q299-305 286-294Q273-283 273-263L273-263Q273-245 286-233Q299-221 315-221Q331-221 344-233Q357-246 357-263ZM121-248L121-248Q121-224 127-201Q132-178 144-156Q156-135 174-119Q192-103 220-93Q247-83 281-83L281-83Q345-83 393-118Q441-153 465-199L465-199L542-345L592-345L650-238L709-345L759-345L818-238L876-345L925-345L984-238Q1002-276 1066-276L1066-276L1123-276L1123-195L1070-195Q1040-195 1009-112L1009-112L959-112L900-219L842-112L792-112L733-219L675-112L625-112L567-219L532-153Q518-126 494-100Q471-74 440-51Q410-28 370-14Q330 0 289 0L289 0Q230 0 181-22Q132-44 101-80Q71-116 54-160Q37-203 37-249L37-249Q37-294 52-335Q66-375 89-404Q112-433 141-454Q169-475 198-485Q226-495 252-495L252-495Q334-495 391-446Q447-397 447-323L447-323Q447-249 411-204Q375-158 315-158L315-158Q271-158 240-189Q210-220 210-263L210-263Q210-307 240-337Q270-368 315-368L315-368Q349-368 372-345L372-345Q363-374 331-393Q299-412 254-412L254-412Q196-412 159-368Q121-325 121-248Z" fill="#000" transform="translate(0, 0)"></path></g></g></g><rect x="162" y="74" width="28" height="28" rx="4" stroke="#0004" stroke-width="1" fill="#fff"></rect><g transform="translate(162, 74)"><g transform="translate(14, 19.599999999999998) scale(0.0125) translate(-330.5, 270)"><path d="M516-142L516-142Q499-142 486-129Q473-117 473-99Q473-82 486-70Q498-58 516-58L516-58Q533-58 545-70Q557-83 557-99L557-99Q557-117 545-129Q532-142 516-142ZM515 5L515 5Q473 5 446-21Q418-46 413-77L413-77L251 0L167 0L167-393Q154-390 145-390L145-390Q101-390 70-421Q40-452 40-495Q40-539 71-569Q102-600 145-600Q189-600 220-569Q251-539 251-495L251-495L251-85L474-197L474-588L558-588L558-195Q621-167 621-100L621-100Q621-56 590-26Q559 5 515 5ZM175-525Q163-537 146-537Q128-537 116-525Q104-513 104-495Q104-477 116-465Q129-453 146-453Q163-453 175-465Q188-477 188-495L188-495Q188-513 175-525Z" fill="#009142" transform="translate(0, 0)"></path></g><g transform="translate(8.4, 8.4) scale(0.01) translate(-312.5, 270)"><path d="M375-428L375-428Q375-394 367-370Q359-345 348-332Q338-319 326-307Q315-295 308-277Q300-259 300-234L300-234L300-83L451-83L451-377Q451-392 430-397L430-397L430-480Q442-490 453-503Q464-516 476-536Q488-555 495-582Q503-609 503-638L503-638L587-638Q587-593 575-553Q563-513 548-490Q533-467 511-442L511-442Q536-413 536-377L536-377L536 0L174 0L174-83L216-83L216-234Q216-270 223-295Q231-320 242-333Q253-347 264-359Q275-370 282-386Q290-403 290-425L290-425Q290-467 265-491Q240-516 206-516L206-516Q248-477 248-432L248-432Q248-387 217-357Q186-328 142-328L142-328Q124-328 106-334Q89-340 73-353Q57-365 47-389Q37-413 37-445L37-445Q37-480 57-515Q78-550 118-575Q158-600 206-600L206-600Q276-600 325-551Q375-502 375-428ZM143-473L143-473Q126-473 113-461Q100-450 100-432Q100-415 112-402Q125-390 143-390Q160-390 172-403Q184-415 184-432Q184-449 172-461Q160-473 143-473Z" fill="#ca5b27" transform="translate(0, 0)"></path></g><g opacity="0.5"><g transform="translate(19.599999999999998, 8.4) scale(0.01) translate(-333, 270)"><path d="M459-362L459-362Q518-346 553-303Q589-260 589-197L589-197Q589-178 586-161Q584-144 576-124Q569-103 557-86Q546-69 526-53Q506-37 480-25Q453-14 415-7Q377 0 331 0L331 0L331 61L258 61L258 0L77 0L77-680L258-680L258-749L331-749L331-680Q388-679 431-666Q474-653 497-634Q520-615 534-589Q548-564 552-545Q555-525 555-506L555-506Q555-491 551-474Q548-457 538-436Q528-415 508-396Q488-376 459-362ZM331-598L331-395Q345-396 354-396Q362-397 378-399Q394-401 404-405Q414-409 427-416Q440-423 448-434Q455-444 461-460Q466-475 466-495L466-495Q466-515 461-531Q456-548 449-558Q442-568 429-576Q416-584 406-587Q397-591 380-594Q363-596 355-597Q347-597 331-598L331-598ZM331-314L331-81Q357-81 376-83Q396-84 420-91Q443-98 458-110Q473-122 484-144Q495-166 495-197L495-197Q495-231 482-254Q470-277 446-289Q423-302 396-307Q368-313 331-314L331-314ZM162-81L258-81L258-314L162-314L162-81ZM162-395L258-394L258-599L162-599L162-395Z" fill="#786ddc" transform="translate(0, 0)"></path></g></g></g><rect x="194" y="74" width="28" height="28" rx="4" stroke="#0004" stroke-width="1" fill="#fff"></rect><g transform="translate(194, 74)"><g transform="translate(19.599999999999998, 19.599999999999998) scale(0.0125) translate(-311, 270)"><path d="M158-600L158-600Q202-600 233-570Q263-540 263-495L263-495L263-172L486-79L486-588L570-588L570 0L486 0L263-93Q262-55 232-25Q203 5 158 5L158 5Q114 5 83-26Q53-57 53-100L53-100Q53-143 84-174Q115-204 158-204L158-204Q169-204 179-202L179-202L179-393Q167-390 158-390L158-390Q113-390 83-421Q53-452 53-495Q53-539 84-569Q114-600 158-600ZM158-142L158-142Q142-142 129-130Q117-118 117-100Q117-82 129-70Q141-58 158-58L158-58Q176-58 188-70Q201-83 201-99L201-99Q201-117 188-129Q175-142 158-142ZM188-525Q176-537 158-537Q141-537 129-525Q117-513 117-495L117-495Q117-477 129-465Q142-453 159-453Q176-453 188-465Q201-477 201-495L201-495Q201-513 188-525Z" fill="#0095a0" transform="translate(0, 0)"></path></g><g transform="translate(8.4, 8.4) scale(0.01) translate(-341, 270)"><path d="M71-569Q102-600 145-600Q189-600 220-569Q251-539 251-495L251-495L251-212L377-588L431-588L558-213L558-588L642-588L642 0L558 0L405-447L251 0L167 0L167-393Q155-390 145-390L145-390Q101-390 70-421Q40-452 40-495Q40-539 71-569ZM175-525Q163-537 146-537Q128-537 116-525Q104-513 104-495Q104-477 116-465Q129-453 146-453Q163-453 175-465Q188-477 188-495L188-495Q188-513 175-525Z" fill="#0095a0" transform="translate(0, 0)"></path></g><g opacity="0.5"><g transform="translate(19.599999999999998, 8.4) scale(0.01) translate(NaN, NaN)"></g></g></g><rect x="226" y="74" width="28" height="28" rx="4" stroke="#0004" stroke-width="1" fill="#fff"></rect><g transform="translate(226, 74)"><g transform="translate(14, 19.599999999999998) scale(0.0125) translate(-298, 270)"><path d="M368-317L368-317Q368-273 338-243Q307-213 263-213L263-213Q252-213 242-214L242-214L242-83L466-83L466-348Q466-419 417-468Q368-516 298-516L298-516Q228-516 179-467Q129-418 129-349L129-349L45-349Q45-418 79-475Q113-533 171-566Q229-600 298-600L298-600Q367-600 425-566Q483-533 517-475Q551-417 551-348L551-348L551 0L158 0L158-318Q158-360 188-391Q218-421 263-421Q308-421 338-390Q368-360 368-317ZM233-287Q245-275 263-275Q282-275 294-287Q306-300 306-317L306-317Q306-335 294-347Q282-359 263-359Q245-359 233-346Q222-334 222-317Q222-300 233-287Z" fill="#008ce3" transform="translate(0, 0)"></path></g><g transform="translate(8.4, 8.4) scale(0.01) translate(-323, 270)"><path d="M299-495L299-495Q299-452 268-421Q237-390 193-390L193-390Q183-390 172-393L172-393L172-124L323-310L474-124L474-588L559-588L559 0L474 0L323-186L172 0L87 0L87-495Q87-539 119-569Q150-600 188-600L188-600Q237-600 268-569Q299-538 299-495ZM164-465Q176-453 193-453Q210-453 223-465Q235-478 235-495L235-495Q235-511 224-524Q212-537 188-537L188-537Q176-537 163-525Q151-513 151-495Q151-477 164-465Z" fill="#0095a0" transform="translate(0, 0)"></path></g><g opacity="0.5"><g transform="translate(19.599999999999998, 8.4) scale(0.01) translate(186.5, 539)"><path d="M-187-645L-187-645Q-231-645-261-675Q-292-706-292-749Q-292-792-262-823Q-232-854-187-854Q-142-854-112-823Q-82-792-82-749L-82-749Q-82-705-113-675Q-143-645-187-645ZM-157-779Q-169-791-187-791Q-204-791-217-779Q-229-766-229-749Q-229-732-217-720Q-204-707-187-707Q-169-707-157-720Q-144-732-144-749Q-144-766-157-779Z" fill="#786ddc" transform="translate(0, 0)"></path></g></g></g><rect x="258" y="74" width="28" height="28" rx="4" stroke="#0004" stroke-width="1" fill="#fff"></rect><g transform="translate(258, 74)"><g transform="translate(14, 19.599999999999998) scale(0.0125) translate(-247, 270)"><path d="M247-600L247-600Q304-600 353-571Q402-543 430-495Q458-446 458-390L458-390L458 0L374 0L374-390Q374-443 337-480Q299-516 247-516L247-516Q192-516 156-479Q120-442 120-390L120-390L35-390Q35-447 64-495Q92-543 141-571Q189-600 247-600Z" fill="#786ddc" transform="translate(0, 0)"></path></g><g transform="translate(8.4, 8.4) scale(0.01) translate(-83.5, 270)"><path d="M247-600L247-600Q304-600 353-571Q402-543 430-495Q458-446 458-390L458-390L458 0L374 0L374-390Q374-443 337-480Q299-516 247-516L247-516Q192-516 156-479Q120-442 120-390L120-390L35-390Q35-447 64-495Q92-543 141-571Q189-600 247-600ZM-187-633L-187-633Q-231-633-261-664Q-292-695-292-738Q-292-781-262-812Q-232-842-187-842Q-142-842-112-812Q-82-781-82-738L-82-738Q-82-693-113-663Q-143-633-187-633ZM-157-768Q-169-780-187-780Q-204-780-217-768Q-229-755-229-738Q-229-720-217-708Q-204-696-187-696Q-169-696-157-708Q-144-720-144-738Q-144-755-157-768Z" fill="#786ddc" transform="translate(0, 0)"></path></g><g opacity="0.5"><g transform="translate(19.599999999999998, 8.4) scale(0.01) translate(-187, 270)"><path d="M187-600L187-600Q246-600 295-571Q344-542 371-494Q399-445 399-390L399-390L399 258L315 258L315-390Q315-442 278-479Q241-516 187-516Q133-516 97-479Q60-442 60-390L60-390L-24-390Q-24-447 4-495Q33-544 82-572Q130-600 187-600Z" fill="#786ddc" transform="translate(0, 0)"></path></g></g></g><rect x="290" y="74" width="28" height="28" rx="4" stroke="#0004" stroke-width="1" fill="#fff"></rect><g transform="translate(290, 74)"><g transform="translate(14, 19.599999999999998) scale(0.0125) translate(117.5, 865)"><path d="M-75-998L-159-998L-159-1152L-75-1152L-75-998Z" fill="#786ddc" transform="translate(0, 0)"></path></g><g transform="translate(8.4, 8.4) scale(0.01) translate(-291, 270)"><path d="M220-83L220-234Q220-270 228-295Q236-320 247-333Q258-347 269-359Q279-370 287-386Q295-403 295-425L295-425Q295-467 270-491Q244-516 210-516L210-516L214-513Q218-510 219-509Q220-508 224-504Q228-500 230-497Q232-495 235-490Q239-485 241-481Q243-477 245-471Q248-465 249-459Q251-453 252-446Q253-439 253-432L253-432Q253-389 222-358Q191-328 147-328L147-328Q128-328 111-334Q94-340 78-353Q61-365 52-389Q42-413 42-445L42-445Q42-480 62-515Q83-550 122-575Q162-600 210-600L210-600Q280-600 330-551Q379-502 379-428L379-428Q379-394 371-370Q364-345 353-332Q342-319 331-307Q320-295 312-277Q305-259 305-234L305-234L305-83L456-83L456-588L540-588L540 0L179 0L179-83L220-83ZM177-461Q165-473 147-473Q129-473 117-461Q105-449 105-432Q105-415 116-403Q128-390 147-390Q166-390 177-403Q189-415 189-432Q189-449 177-461Z" fill="#da407e" transform="translate(0, 0)"></path></g><g opacity="0.5"><g transform="translate(19.599999999999998, 8.4) scale(0.01) translate(-289.5, 270)"><path d="M246-83L246-218Q246-250 253-278Q261-306 271-325Q282-344 293-361Q304-377 312-395Q319-413 319-432L319-432Q319-469 300-492Q281-516 259-527L259-527L212-498L162-527Q119-524 105-486L105-486Q122-492 136-492L136-492Q149-492 165-486Q181-480 197-469Q212-457 223-437Q233-417 233-392L233-392Q233-345 202-315Q170-285 127-285L127-285Q107-285 88-293Q68-300 52-316Q35-331 25-357Q14-383 14-416L14-416Q14-491 49-540Q84-589 146-600L146-600L212-561L282-600Q296-596 311-589Q325-583 342-569Q360-556 373-539Q386-522 395-496Q404-469 404-438L404-438Q404-405 396-379Q389-352 378-334Q367-316 356-299Q345-283 338-263Q330-243 330-220L330-220L330-83L481-83L481-588L565-588L565 0L203 0L203-83L246-83ZM157-418Q145-430 127-430Q109-430 97-418Q85-406 85-389L85-389Q85-371 98-359Q110-347 127-347L127-347Q144-347 157-360Q169-373 169-389Q169-405 157-418Z" fill="#da407e" transform="translate(0, 0)"></path></g></g></g><rect x="322" y="74" width="28" height="28" rx="4" stroke="#0004" stroke-width="1" fill="#fff"></rect><g transform="translate(322, 74)"><g transform="translate(19.599999999999998, 19.599999999999998) scale(0.0125) translate(90.5, 871.5)"><path d="M-206-1165Q-187-1185-158-1185Q-128-1185-109-1165Q-90-1145-90-1118L-90-1118Q-90-1087-112-1064L-112-1064L-137-1037Q-90-1045-53-1080Q-15-1115-15-1180L-15-1180L43-1180Q43-1122 15-1076Q-14-1029-60-1004Q-106-978-158-978L-158-978L-214-978L-214-1036L-176-1057Q-189-1059-199-1066Q-209-1073-214-1079Q-218-1086-221-1095Q-224-1103-225-1108Q-225-1113-225-1118L-225-1118Q-225-1146-206-1165ZM-158-1142L-158-1142Q-169-1142-176-1135Q-182-1128-182-1118L-182-1118Q-182-1107-175-1100Q-168-1093-158-1093L-158-1093Q-147-1093-139-1100Q-132-1108-132-1118L-132-1118Q-132-1127-139-1135Q-146-1142-158-1142Z" fill="#786ddc" transform="translate(0, 0)"></path></g><g transform="translate(8.4, 8.4) scale(0.01) translate(-122.5, 274)"><path d="M-7-806L102-806Q134-806 162-793Q191-780 211-751Q232-721 232-681L232-681L232-202Q240-204 253-204L253-204Q295-204 326-174Q358-144 358-100L358-100Q358-57 327-26Q297 5 253 5Q208 5 178-26Q148-57 148-99L148-99L148-681Q148-700 136-712Q124-723 104-723L104-723L-113-723Q-113-791-80-848Q-46-906 12-940Q71-974 140-974L140-974Q211-974 269-939Q326-904 359-849L359-849L285-807Q280-816 274-825Q267-834 254-846Q240-859 225-868Q210-877 187-884Q165-890 140-890L140-890Q109-890 83-881Q56-871 38-856Q21-841 11-830Q0-818-7-806L-7-806ZM283-129Q271-142 253-142Q234-142 222-129Q210-116 210-99Q210-83 222-70Q234-58 253-58Q271-58 283-70Q295-83 295-99L295-99Q295-116 283-129Z" fill="#786ddc" transform="translate(0, 0)"></path></g><g opacity="0.5"><g transform="translate(19.599999999999998, 8.4) scale(0.01) translate(NaN, NaN)"></g></g></g><rect x="354" y="74" width="28" height="28" rx="4" stroke="#0004" stroke-width="1" fill="#fff"></rect><g transform="translate(354, 74)"><g transform="translate(14, 19.599999999999998) scale(0.0125) translate(-257.5, 270)"><path d="M258-516L258-516Q204-516 167-479Q130-443 130-390L130-390L46-390Q46-445 73-493Q100-541 149-570Q198-600 258-600L258-600Q347-600 408-537Q469-475 469-390L469-390L469-100Q469-56 438-25Q407 5 363 5L363 5Q319 5 289-26Q258-56 258-100L258-100Q258-143 289-173Q319-204 364-204L364-204Q376-204 385-202L385-202L385-390Q385-443 347-479Q310-516 258-516ZM394-129Q382-142 363-142Q345-142 333-129Q321-116 321-99Q321-83 333-70Q345-58 363-58Q382-58 394-70Q405-83 405-99Q405-116 394-129Z" fill="#008ce3" transform="translate(0, 0)"></path></g><g transform="translate(8.4, 8.4) scale(0.01) translate(-318.5, 270)"><path d="M40-100L40-100Q40-143 71-174Q102-204 146-204L146-204Q159-204 167-202L167-202L167-349L90-349Q90-417 124-474Q158-532 217-566Q275-600 343-600L343-600Q413-600 471-565Q530-531 563-473Q596-416 596-349L596-349L596 0L512 0L512-349Q512-420 462-468Q413-516 344-516L344-516Q298-516 259-493Q220-469 197-432L197-432L293-432L293-349L252-349L252-100Q252-55 221-25Q189 5 146 5L146 5Q101 5 71-26Q40-57 40-100ZM176-130Q163-142 146-142Q129-142 117-130Q104-118 104-100Q104-82 116-70Q129-58 146-58L146-58Q163-58 176-70Q188-82 188-100Q188-118 176-130Z" fill="#0095a0" transform="translate(0, 0)"></path></g><g opacity="0.5"><g transform="translate(19.599999999999998, 8.4) scale(0.01) translate(-272.5, 270)"><path d="M181-402L85-402L85-498L181-498L181-402ZM133 0L85 0L85-96L181-96L181 0Q181 103 103 136L103 136L80 100Q107 88 120 64Q132 40 133 0L133 0Z" fill="#000" transform="translate(0, 0)"></path><path d="M183-402L87-402L87-498L183-498L183-402ZM183 0L87 0L87-96L183-96L183 0Z" fill="#000" transform="translate(283, 0)"></path></g></g></g><rect x="386" y="74" width="28" height="28" rx="4" stroke="#0004" stroke-width="1" fill="#fff"></rect><g transform="translate(386, 74)"><g transform="translate(14, 19.599999999999998) scale(0.0125) translate(328.5, 599.5)"><path d="M-80-661L-576-707Q-562-758-533-795Q-504-833-469-853Q-434-873-400-882Q-366-892-334-892L-334-892Q-301-892-264-881L-264-881L-264-959L-191-959L-191-847Q-171-833-154-818L-154-818L-154-959L-80-959L-80-661ZM-440-768L-199-745Q-206-753-214-761Q-222-769-238-782Q-255-795-280-802Q-304-810-332-810L-332-810Q-351-810-390-798Q-428-786-440-768L-440-768Z" fill="#786ddc" transform="translate(0, 0)"></path></g><g transform="translate(8.4, 8.4) scale(0.01) translate(-170, 351.5)"><path d="M113-444L73-444L50-570L50-680L134-680L134-570L113-444ZM268-444L228-444L206-570L206-680L290-680L290-570L268-444Z" fill="#000" transform="translate(0, 0)"></path></g><g opacity="0.5"><g transform="translate(19.599999999999998, 8.4) scale(0.01) translate(-305, 355.5)"><path d="M116-444L64-444L42-572L42-687L138-687L138-572L116-444Z" fill="#000" transform="translate(0, 0)"></path><path d="M113-444L73-444L50-570L50-680L134-680L134-570L113-444ZM268-444L228-444L206-570L206-680L290-680L290-570L268-444Z" fill="#000" transform="translate(277, 0)"></path></g></g></g><rect x="418" y="74" width="68" height="28" rx="4" stroke="#0004" stroke-width="1" fill="#fff"></rect><rect x="10" y="106" width="68" height="28" rx="4" stroke="#0004" stroke-width="1" fill="#fff"></rect><rect x="82" y="106" width="28" height="28" rx="4" stroke="#0004" stroke-width="1" fill="#fff"></rect><g transform="translate(82, 106)"><g transform="translate(14, 19.599999999999998) scale(0.0125) translate(180, 73)"><path d="M-255 71Q-225 41-180 41Q-135 41-105 72Q-74 103-74 144L-74 144L-74 354L-158 354L-158 248Q-170 249-180 249L-180 249Q-224 249-255 219Q-286 189-286 145Q-286 102-255 71ZM-150 116Q-162 104-180 104Q-198 104-210 116Q-222 128-222 145Q-222 162-210 175Q-197 187-180 187L-180 187Q-163 187-150 175Q-138 163-138 145L-138 145Q-138 128-150 116Z" fill="#786ddc" transform="translate(0, 0)"></path></g><g transform="translate(8.4, 8.4) scale(0.01) translate(-311.5, 270)"><path d="M259-129Q247-142 230-142Q213-142 200-129Q188-117 188-99Q188-82 200-70Q213-58 230-58L230-58Q247-58 260-70Q272-82 272-99Q272-117 259-129ZM312-600L312-600Q363-600 410-580Q457-560 490-526Q524-492 544-446Q564-399 564-349L564-349L564 258L480 258L480-349Q480-418 431-467Q383-516 312-516L312-516Q281-516 254-506Q227-497 210-482Q192-467 182-455Q172-443 166-432L166-432L252-432L252-349L209-349L209-202Q217-204 230-204L230-204Q274-204 305-174Q336-143 336-100L336-100Q336-57 305-26Q274 5 230 5Q186 5 155-26Q124-56 124-99L124-99L124-349L59-349Q59-416 92-474Q126-532 184-566Q242-600 312-600Z" fill="#008ce3" transform="translate(0, 0)"></path></g><g opacity="0.5"><g transform="translate(19.599999999999998, 8.4) scale(0.01) translate(-332.5, 270)"><path d="M54-100L54-100Q54-143 85-174Q116-204 160-204L160-204Q173-204 181-202L181-202L181-349L105-349Q105-417 139-474Q173-532 231-566Q289-600 357-600L357-600Q427-600 485-565Q544-531 577-473Q610-416 610-349L610-349L610 258L526 258L526-349Q526-417 477-466Q428-516 358-516L358-516Q312-516 273-493Q234-469 211-432L211-432L308-432L308-349L266-349L266-100Q266-55 235-25Q203 5 160 5L160 5Q115 5 85-26Q54-57 54-100ZM190-130Q177-142 160-142Q143-142 131-130Q118-118 118-100Q118-82 131-70Q143-58 160-58L160-58Q177-58 190-70Q202-82 202-100Q202-118 190-130Z" fill="#008ce3" transform="translate(0, 0)"></path></g></g></g><rect x="114" y="106" width="28" height="28" rx="4" stroke="#0004" stroke-width="1" fill="#fff"></rect><g transform="translate(114, 106)"><g transform="translate(19.599999999999998, 19.599999999999998) scale(0.0125) translate(-158.5, 312)"><path d="M280 5L280 5Q236 5 205-25Q174-56 174-99L174-99L174-865L36-713L-42-713L-42-936Q-42-974-70-1001L-70-1001L-22-1049Q31-1006 31-936L31-936L31-818L174-972L259-972L259-202Q268-204 280-204L280-204Q324-204 355-174Q386-143 386-100L386-100Q386-57 356-26Q325 5 280 5ZM310-129Q297-142 280-142Q263-142 251-130Q238-118 238-99L238-99Q238-83 250-70Q263-58 280-58L280-58Q297-58 310-70Q323-82 323-99L323-99Q323-117 310-129Z" fill="#786ddc" transform="translate(0, 0)"></path></g><g transform="translate(8.4, 8.4) scale(0.01) translate(-323, 270)"><path d="M299-495L299-495Q299-452 268-421Q237-390 193-390L193-390Q183-390 172-393L172-393L172-124L323-310L474-124L474-859L559-859L559 0L474 0L323-186L172 0L87 0L87-495Q87-539 118-569Q150-600 193-600Q237-600 268-569Q299-538 299-495ZM164-465Q176-453 193-453Q210-453 223-465Q235-478 235-495L235-495Q235-513 223-525Q210-537 193-537L193-537Q176-537 163-525Q151-513 151-495Q151-477 164-465Z" fill="#0095a0" transform="translate(0, 0)"></path></g><g opacity="0.5"><g transform="translate(19.599999999999998, 8.4) scale(0.01) translate(NaN, NaN)"></g></g></g><rect x="146" y="106" width="28" height="28" rx="4" stroke="#0004" stroke-width="1" fill="#fff"></rect><g transform="translate(146, 106)"><g transform="translate(14, 19.599999999999998) scale(0.0125) translate(-326.5, 270)"><path d="M75-569Q106-600 150-600Q194-600 225-569Q256-539 256-495L256-495L256-165L376-534Q377-539 381-545Q384-551 393-561Q402-571 414-579Q425-587 445-593Q465-600 488-600L488-600Q508-600 528-593Q548-585 567-571Q585-557 597-532Q608-506 608-473L608-473L608 0L524 0L524-473Q524-490 512-503Q500-517 468-517L468-517Q437-517 430-496L430-496L256 0L172 0L172-393Q158-390 150-390L150-390Q105-390 75-421Q45-452 45-495Q45-539 75-569ZM180-525Q168-537 150-537Q133-537 121-525Q108-513 108-495Q108-477 121-465Q134-453 150-453Q167-453 180-465Q192-477 192-495L192-495Q192-513 180-525Z" fill="#009142" transform="translate(0, 0)"></path></g><g transform="translate(8.4, 8.4) scale(0.01) translate(-355, 270)"><path d="M362-557L435-600Q450-596 468-588Q486-580 506-565Q526-550 542-531Q558-511 568-481Q579-452 579-418L579-418L579 258L495 258L495-418Q495-462 470-491Q445-519 413-527L413-527L362-494L309-527Q268-527 226-479L226-479Q243-485 259-485L259-485Q271-485 286-480Q301-474 317-463Q333-451 344-431Q354-411 354-385L354-385Q354-337 323-307Q292-278 249-278L249-278Q229-278 210-285Q190-293 173-308Q155-323 143-349Q132-375 132-409L132-409Q132-450 148-487Q164-524 201-555Q239-587 293-600L293-600L362-557ZM249-423L249-423Q231-423 219-411Q207-399 207-382L207-382Q207-363 219-352Q232-340 249-340L249-340Q265-340 278-351Q291-363 291-382L291-382Q291-400 278-412Q266-423 249-423Z" fill="#786ddc" transform="translate(0, 0)"></path></g><g opacity="0.5"><g transform="translate(19.599999999999998, 8.4) scale(0.01) translate(-325, 270)"><path d="M165-525Q153-537 136-537Q119-537 106-525Q94-513 94-495L94-495Q94-478 106-465Q118-453 136-453L136-453Q153-453 166-466Q178-479 178-495L178-495Q178-513 165-525ZM136-600L136-600Q180-600 211-568Q242-537 242-495L242-495Q242-432 201-413L201-413Q248-413 286-427Q325-442 349-467Q372-492 385-523Q398-554 398-588L398-588L482-588L482 0L398 0L398-404Q349-359 306-344Q263-329 218-329L218-329Q170-329 132-344Q95-358 73-382Q51-406 40-434Q29-462 29-491L29-491Q29-536 60-568Q90-600 136-600ZM537 0L537-588L621-588L621 0L537 0Z" fill="#000" transform="translate(0, 0)"></path></g></g></g><rect x="178" y="106" width="28" height="28" rx="4" stroke="#0004" stroke-width="1" fill="#fff"></rect><g transform="translate(178, 106)"><g transform="translate(19.599999999999998, 19.599999999999998) scale(0.0125) translate(-291.5, 270)"><path d="M219-391L219-391Q163-391 140-425L140-425Q140-384 163-360Q186-336 225-336L225-336L320-336L320-253L228-253Q220-253 206-240Q191-228 191-209L191-209L191-83L439-83L439-588L524-588L524 0L107 0L107-227Q107-266 131-289L131-289Q105-300 82-342Q59-383 59-425L59-425Q59-470 76-509Q93-548 128-574Q163-600 210-600L210-600Q258-600 289-570Q321-540 321-495L321-495Q321-454 291-423Q262-391 219-391ZM216-537L216-537Q198-537 185-525Q173-513 173-495L173-495Q173-477 185-465Q197-454 215-454L215-454Q233-454 245-466Q257-478 257-495Q257-513 245-525Q233-537 216-537Z" fill="#008ce3" transform="translate(0, 0)"></path></g><g transform="translate(8.4, 8.4) scale(0.01) translate(-448.5, 270)"><path d="M294-600L294-600Q345-600 392-580Q438-560 472-527Q506-493 526-446Q547-400 547-349L547-349L547-84L708-195L708-588L793-588L793-195Q818-184 837-161Q856-137 856-100L856-100Q856-57 825-26Q795 5 750 5L750 5Q729 5 712-2Q694-8 684-18Q673-27 665-39Q657-50 654-57Q651-64 650-69L650-69L547 0L462 0L462-349Q462-418 413-467Q364-516 294-516L294-516Q269-516 246-509Q224-503 208-493Q193-484 180-472Q166-459 159-450Q153-441 147-432L147-432L233-432L233-349L192-349L192-202Q200-204 212-204L212-204Q257-204 287-173Q317-143 317-100Q317-57 287-26Q257 5 212 5L212 5Q169 5 138-26Q107-57 107-99L107-99L107-349L41-349Q41-416 74-474Q108-532 166-566Q225-600 294-600ZM780-129Q767-142 750-142Q733-142 721-129Q708-117 708-99Q708-82 721-70Q733-58 750-58L750-58Q767-58 780-70Q793-82 793-99Q793-117 780-129ZM243-129Q231-142 212-142Q194-142 182-129Q170-117 170-100L170-100Q170-82 182-70Q194-58 212-58L212-58Q231-58 243-70Q255-83 255-99Q255-116 243-129Z" fill="#847f00" transform="translate(0, 0)"></path></g><g opacity="0.5"><g transform="translate(19.599999999999998, 8.4) scale(0.01) translate(NaN, NaN)"></g></g></g><rect x="210" y="106" width="28" height="28" rx="4" stroke="#0004" stroke-width="1" fill="#fff"></rect><g transform="translate(210, 106)"><g transform="translate(19.599999999999998, 19.599999999999998) scale(0.0125) translate(-284, 270)"><path d="M284-516L284-516Q222-516 180-474Q137-431 137-370L137-370L53-370Q53-465 120-532Q188-600 284-600L284-600Q347-600 401-569Q454-538 485-485Q516-432 516-370L516-370Q516-347 509-315L509-315L443 0L355 0L312-211Q291-202 268-202L268-202Q223-202 192-233Q162-264 162-307L162-307Q162-352 193-381Q225-411 267-411L267-411Q293-411 313-402Q333-392 345-379Q356-365 363-353Q369-340 370-331L370-331L398-167L427-334Q431-361 431-371L431-371Q431-432 388-474Q344-516 284-516ZM297-337Q285-349 268-349Q251-349 238-337Q225-324 225-307L225-307Q225-290 237-277Q250-265 268-265Q285-265 297-277Q309-289 309-307L309-307Q309-325 297-337Z" fill="#ca5b27" transform="translate(0, 0)"></path></g><g transform="translate(8.4, 8.4) scale(0.01) translate(96.5, 875.5)"><path d="M7-1061L7-1061Q30-1078 45-1106Q60-1133 60-1168L60-1168L108-1168Q108-1127 91-1092Q75-1057 49-1034Q23-1011-8-998Q-39-984-68-984L-68-984L-68-1032Q-65-1035-60-1039Q-55-1043-46-1056Q-38-1070-38-1085L-38-1085Q-38-1111-52-1125Q-66-1139-80-1139L-80-1139Q-111-1139-122-1114L-122-1114L-160-1114Q-183-1139-200-1139L-200-1139Q-225-1138-241-1115L-241-1115Q-229-1118-221-1118L-221-1118Q-192-1118-173-1099Q-153-1079-153-1051Q-153-1024-173-1004Q-192-984-221-984L-221-984Q-252-984-276-1008Q-300-1032-300-1078L-300-1078Q-300-1100-293-1119Q-286-1138-275-1150Q-264-1162-250-1171Q-237-1179-224-1183Q-211-1186-200-1186L-200-1186Q-160-1186-140-1162L-140-1162Q-120-1186-82-1186L-82-1186Q-48-1186-19-1158Q10-1129 10-1085L10-1085Q10-1074 7-1061ZM-221-1076L-221-1076Q-232-1076-239-1069Q-246-1061-246-1051Q-246-1042-239-1034Q-232-1027-221-1027L-221-1027Q-210-1027-203-1034Q-196-1042-196-1051L-196-1051Q-196-1062-203-1069Q-211-1076-221-1076Z" fill="#786ddc" transform="translate(0, 0)"></path></g><g opacity="0.5"><g transform="translate(19.599999999999998, 8.4) scale(0.01) translate(NaN, NaN)"></g></g></g><rect x="242" y="106" width="28" height="28" rx="4" stroke="#0004" stroke-width="1" fill="#fff"></rect><g transform="translate(242, 106)"><g transform="translate(14, 19.599999999999998) scale(0.0125) translate(-323.5, 270)"><path d="M397-395Q428-364 428-321Q428-278 396-248Q365-217 322-217L322-217Q278-217 249-248L249-248L160 0L75 0L75-349Q75-398 90-441Q105-483 130-511Q155-540 188-560Q220-581 255-590Q289-600 324-600L324-600Q390-600 447-568Q503-537 538-479Q572-421 572-349L572-349L572 0L488 0L488-348Q488-424 440-470Q393-516 324-516L324-516Q251-516 206-468Q160-420 160-349L160-349L160-156L226-365Q232-384 258-405Q285-425 322-425L322-425Q367-425 397-395ZM352-351Q339-363 322-363Q304-363 292-350Q279-338 279-321L279-321Q279-303 292-291Q305-279 322-279L322-279Q339-279 351-291Q364-303 364-321L364-321Q364-338 352-351Z" fill="#da407e" transform="translate(0, 0)"></path></g><g transform="translate(8.4, 8.4) scale(0.01) translate(117.5, 877)"><path d="M-28-1121L-28-1053L-84-1053L-84-997L-151-997L-151-1053L-208-1053L-208-1121L-151-1121L-151-1177L-84-1177L-84-1121L-28-1121Z" fill="#786ddc" transform="translate(0, 0)"></path></g><g opacity="0.5"><g transform="translate(19.599999999999998, 8.4) scale(0.01) translate(-330.5, 270)"><path d="M435-306L435-306Q435-261 403-231Q371-201 329-201L329-201Q285-201 256-232L256-232L162 0L77 0L77-398Q77-480 116-533Q155-587 222-600L222-600L331-529L440-600Q504-588 544-533Q584-478 584-398L584-398L584 0L500 0L500-398Q500-436 494-458Q488-480 476-492Q464-504 440-516L440-516L331-446L227-514Q223-514 217-512Q211-510 201-502Q190-494 182-482Q173-471 167-449Q161-427 161-398L161-398L161-147L233-350Q241-372 267-391Q293-411 330-411L330-411Q373-411 404-381Q435-351 435-306ZM329-348L329-348Q312-348 299-336Q286-323 286-306L286-306Q286-288 299-276Q312-264 329-264L329-264Q346-264 359-276Q371-289 371-306L371-306Q371-323 358-336Q346-348 329-348Z" fill="#da407e" transform="translate(0, 0)"></path></g></g></g><rect x="274" y="106" width="28" height="28" rx="4" stroke="#0004" stroke-width="1" fill="#fff"></rect><g transform="translate(274, 106)"><g transform="translate(14, 19.599999999999998) scale(0.0125) translate(328.5, 597.5)"><path d="M-80-659L-576-705Q-562-755-533-793Q-504-830-469-850Q-434-870-400-880Q-366-889-334-889L-334-889Q-241-889-154-816L-154-816L-154-956L-80-956L-80-659ZM-440-765L-199-743Q-206-751-214-759Q-222-767-238-780Q-255-792-280-800Q-304-808-332-808L-332-808Q-351-808-390-795Q-428-783-440-765L-440-765Z" fill="#786ddc" transform="translate(0, 0)"></path></g><g transform="translate(8.4, 8.4) scale(0.01) translate(107, 886.5)"><path d="M-176-1110Q-186-1119-200-1119Q-214-1119-224-1110Q-234-1100-234-1086L-234-1086Q-234-1072-224-1062Q-214-1052-200-1052Q-187-1052-176-1062Q-166-1072-166-1086L-166-1086Q-166-1100-176-1110ZM-284-1085L-284-1085Q-284-1122-259-1146Q-234-1170-200-1170L-200-1170L-23-1169Q13-1169 29-1190L29-1190L70-1149Q32-1111-23-1111L-23-1111L-120-1111Q-115-1099-115-1086L-115-1086Q-115-1051-140-1027Q-165-1002-200-1002L-200-1002Q-234-1002-259-1026Q-284-1050-284-1085Z" fill="#786ddc" transform="translate(0, 0)"></path></g><g opacity="0.5"><g transform="translate(19.599999999999998, 8.4) scale(0.01) translate(158.5, 625.5)"><path d="M-259-810Q-274-795-274-773Q-274-750-259-735Q-243-720-222-720L-222-720L-222-647Q-275-647-312-684Q-349-720-349-773L-349-773Q-349-826-311-862Q-274-898-222-898L-222-898Q-222-952-184-988Q-147-1024-96-1024L-96-1024Q-44-1024-6-988Q31-953 31-898L31-898L-43-898Q-43-919-58-935Q-73-951-96-951Q-118-951-133-935Q-148-919-148-898L-148-898Q-148-878-133-861L-133-861L-133-809L-184-809Q-201-825-222-825L-222-825Q-243-825-259-810Z" fill="#786ddc" transform="translate(0, 0)"></path></g></g></g><rect x="306" y="106" width="28" height="28" rx="4" stroke="#0004" stroke-width="1" fill="#fff"></rect><g transform="translate(306, 106)"><g transform="translate(14, 19.599999999999998) scale(0.0125) translate(-323.5, 270)"><path d="M323-349L323-349Q306-349 294-337Q282-324 282-307L282-307Q282-289 293-277Q305-265 323-265L323-265Q342-265 354-278Q366-290 366-307Q366-323 354-336Q341-349 323-349ZM250-382Q281-411 324-411Q367-411 398-381Q430-350 430-305L430-305Q430-263 398-233L398-233L160 0L75 0L75-349Q75-398 90-441Q105-483 130-511Q155-540 188-560Q220-581 255-590Q289-600 324-600L324-600Q390-600 447-568Q503-537 538-479Q572-421 572-349L572-349L572 0L488 0L488-348Q488-424 440-470Q393-516 324-516L324-516Q251-516 206-468Q160-420 160-349L160-349L160-98L271-216Q240-235 229-257Q219-279 219-307L219-307Q219-352 250-382Z" fill="#009142" transform="translate(0, 0)"></path></g><g transform="translate(8.4, 8.4) scale(0.01) translate(-344.5, 270)"><path d="M420-355L420-355Q428-338 428-316L428-316Q428-273 396-243Q365-212 322-212L322-212Q278-212 249-243L249-243L160 0L75 0L75-349Q75-410 98-459Q120-509 156-538Q193-568 236-584Q279-600 324-600L324-600Q382-600 420-581Q459-563 499-525L499-525Q529-572 529-632L529-632L613-632Q613-577 594-530Q575-483 550-452L550-452Q572-404 572-349L572-349L572 0L488 0L488-349Q488-372 483-390L483-390Q480-388 472-383Q464-377 461-375Q457-373 450-369Q444-365 440-363Q435-360 430-358Q425-356 420-355ZM442-463L442-463Q396-516 325-516L325-516Q275-516 236-492Q198-467 179-430Q160-392 160-349L160-349L160-151L226-360Q227-366 233-374Q239-383 250-394Q261-405 280-413Q299-420 322-420L322-420Q394-420 442-463ZM352-346Q339-358 322-358Q304-358 292-346Q279-333 279-316L279-316Q279-299 292-287Q305-275 322-275Q339-275 351-287Q364-299 364-316L364-316Q364-334 352-346Z" fill="#008ce3" transform="translate(0, 0)"></path></g><g opacity="0.5"><g transform="translate(19.599999999999998, 8.4) scale(0.01) translate(-130.5, 250.5)"><path d="M133 0L85 0L85-96L181-96L181 0Q181 54 162 86Q143 119 103 136L103 136L80 100Q108 87 120 64Q132 42 133 0L133 0Z" fill="#000" transform="translate(0, 0)"></path></g></g></g><rect x="338" y="106" width="28" height="28" rx="4" stroke="#0004" stroke-width="1" fill="#fff"></rect><g transform="translate(338, 106)"><g transform="translate(14, 19.599999999999998) scale(0.0125) translate(-246, 270)"><path d="M380-510L380-510L446-466Q375-312 212-312L212-312Q174-312 145-321Q115-330 97-343Q79-357 67-375Q55-393 51-409Q46-426 46-441L46-441Q46-488 76-518Q106-548 151-548L151-548Q194-548 225-518Q256-488 256-450L256-450Q256-407 229-388L229-388Q260-388 285-398Q310-408 327-427Q345-445 357-465Q369-484 380-510ZM181-473Q169-486 151-486Q133-486 121-473Q109-461 109-443Q109-426 121-414Q133-402 151-402L151-402Q169-402 181-414Q193-427 193-443Q193-460 181-473ZM380-220L380-220L446-176Q374-21 214-21L214-21Q172-21 139-32Q107-43 90-58Q73-73 63-92Q52-112 49-125Q46-139 46-151L46-151Q46-199 77-228Q108-258 151-258Q194-258 225-228Q256-197 256-160L256-160Q256-118 229-98L229-98Q260-98 285-107Q309-117 327-136Q345-154 356-174Q368-194 380-220ZM151-195L151-195Q134-195 121-183Q109-171 109-153L109-153Q109-135 121-123Q134-112 151-112L151-112Q168-112 180-123Q193-135 193-153L193-153Q193-171 180-183Q168-195 151-195Z" fill="#786ddc" transform="translate(0, 0)"></path></g><g transform="translate(8.4, 8.4) scale(0.01) translate(-298.5, 270)"><path d="M249-516L249-516Q201-516 169-506Q138-496 138-480L138-480Q138-466 173-460Q209-454 250-454L250-454Q321-454 362-475L362-475Q319-516 249-516ZM275-321Q306-291 306-248Q306-204 275-174Q244-143 200-143L200-143Q188-143 179-145L179-145L179-83L421-83L421-348Q421-382 408-412L408-412Q335-371 241-371L241-371Q202-371 169-379Q136-386 116-398Q95-410 80-425Q66-440 60-453Q53-467 53-478L53-478Q53-498 65-518Q76-538 99-557Q122-576 163-588Q204-600 255-600L255-600Q295-600 334-585Q373-571 394-556Q416-541 431-526L431-526Q461-560 473-598L473-598L544-560Q525-507 477-463L477-463Q505-410 505-348L505-348L505 0L94 0L94-248Q94-291 125-321Q156-352 200-352L200-352Q244-352 275-321ZM170-218Q183-206 200-206Q217-206 229-218Q242-230 242-248L242-248Q242-264 230-277Q218-289 200-289Q182-289 170-277Q158-265 158-248L158-248Q158-229 170-218Z" fill="#008ce3" transform="translate(0, 0)"></path></g><g opacity="0.5"><g transform="translate(19.599999999999998, 8.4) scale(0.01) translate(-135.5, 270)"><path d="M183 0L87 0L87-96L183-96L183 0Z" fill="#000" transform="translate(0, 0)"></path></g></g></g><rect x="370" y="106" width="28" height="28" rx="4" stroke="#0004" stroke-width="1" fill="#fff"></rect><g transform="translate(370, 106)"><g transform="translate(14, 19.599999999999998) scale(0.0125) translate(260.5, 68.5)"><path d="M-416 71Q-386 41-341 41Q-295 41-265 72Q-235 103-235 144L-235 144L-235 290L-158 290L-158 40L-74 40L-74 363L-319 363L-319 248Q-330 249-341 249L-341 249Q-385 249-416 219Q-446 188-446 145Q-446 102-416 71ZM-341 104L-341 104Q-358 104-370 115Q-383 127-383 145L-383 145Q-383 164-370 175Q-357 187-341 187L-341 187Q-324 187-311 175Q-299 163-299 145L-299 145Q-299 128-310 116Q-322 104-341 104Z" fill="#786ddc" transform="translate(0, 0)"></path></g><g transform="translate(8.4, 8.4) scale(0.01) translate(-265, 270)"><path d="M129-490L42-490Q47-583 107-644Q167-705 265-705L265-705Q360-705 424-651Q488-597 488-518L488-518Q488-484 477-456Q467-428 451-407Q435-387 416-369Q397-350 377-331Q358-312 342-291Q326-269 316-238Q306-207 306-169L306-169L221-169L222-204Q223-238 233-267Q244-296 260-317Q276-337 295-355Q314-374 333-390Q353-407 368-424Q383-441 393-463Q403-485 403-510L403-510Q403-531 394-551Q386-571 369-588Q353-605 326-615Q299-625 266-625L266-625Q149-625 129-490L129-490ZM312 0L216 0L216-96L312-96L312 0Z" fill="#000" transform="translate(0, 0)"></path></g><g opacity="0.5"><g transform="translate(19.599999999999998, 8.4) scale(0.01) translate(-495.5, 270)"><path d="M48 5L-38 5L237-689L323-689L48 5Z" fill="#000" transform="translate(0, 0)"></path><path d="M129-490L42-490Q47-583 107-644Q167-705 265-705L265-705Q360-705 424-651Q488-597 488-518L488-518Q488-484 477-456Q467-428 451-407Q435-387 416-369Q397-350 377-331Q358-312 342-291Q326-269 316-238Q306-207 306-169L306-169L221-169L222-204Q223-238 233-267Q244-296 260-317Q276-337 295-355Q314-374 333-390Q353-407 368-424Q383-441 393-463Q403-485 403-510L403-510Q403-531 394-551Q386-571 369-588Q353-605 326-615Q299-625 266-625L266-625Q149-625 129-490L129-490ZM312 0L216 0L216-96L312-96L312 0Z" fill="#000" transform="translate(541, 0)"></path></g></g></g><rect x="402" y="106" width="84" height="28" rx="4" stroke="#0004" stroke-width="1" fill="#fff"></rect><rect x="10" y="138" width="44" height="28" rx="4" stroke="#0004" stroke-width="1" fill="#fff"></rect><rect x="58" y="138" width="28" height="28" rx="4" stroke="#0004" stroke-width="1" fill="#fff"></rect><rect x="90" y="138" width="44" height="28" rx="4" stroke="#0004" stroke-width="1" fill="#fff"></rect><rect x="138" y="138" width="188" height="28" rx="4" stroke="#0004" stroke-width="1" fill="#fff"></rect><rect x="330" y="138" width="44" height="28" rx="4" stroke="#0004" stroke-width="1" fill="#fff"></rect><rect x="378" y="138" width="28" height="28" rx="4" stroke="#0004" stroke-width="1" fill="#fff"></rect><rect x="410" y="138" width="28" height="28" rx="4" stroke="#0004" stroke-width="1" fill="#fff"></rect><rect x="442" y="138" width="44" height="28" rx="4" stroke="#0004" stroke-width="1" fill="#fff"></rect></svg>